STARTFONT 2.1
COMMENT
COMMENT Converted from TrueType font "verdana.ttf" by "ttf2bdf 2.6".
COMMENT
FONT -FreeType-Verdana-Medium-R-Normal--19-140-100-100-P-103-ISO10646-1
SIZE 14 100 100
FONTBOUNDINGBOX 28 23 -1 -4
STARTPROPERTIES 20
FOUNDRY "FreeType"
FAMILY_NAME "Verdana"
WEIGHT_NAME "Medium"
SLANT "R"
SETWIDTH_NAME "Normal"
ADD_STYLE_NAME ""
PIXEL_SIZE 19
POINT_SIZE 140
RESOLUTION_X 100
RESOLUTION_Y 100
SPACING "P"
AVERAGE_WIDTH 103
CHARSET_REGISTRY "ISO10646"
CHARSET_ENCODING "1"
FONT_ASCENT 19
FONT_DESCENT 3
COPYRIGHT "Typeface and data © 1996 Microsoft Corporation. All Rights Reserved"
_TTF_FONTFILE "verdana.ttf"
_TTF_PSNAME "Verdana"
_XFREE86_GLYPH_RANGES "32_126 160_383 402 416_417 431_432 506_511 710_711 713 728_733 768_769 771 777 803 894 900_906 908 910_929 931_974 1025_1036 1038_1103 1105_1116 1118_1119 1168_1169 7808_7813 7840_7929 8211_8213 8215_8222 8224_8226 8230 8240 8242_8243 8249_8250 8252 8254 8260 8319 8355_8356 8359 8363_8364 8453 8467 8470 8482 8486 8494 8539_8542 8706 8710 8719 8721_8722 8725 8729_8730 8734 8747 8776 8800 8804_8805 9633 9642_9643 9674 9679 9702 61441_61442 61444_61453 64257_64258"
ENDPROPERTIES
CHARS 680
STARTCHAR 0020
ENCODING 32
SWIDTH 360 0
DWIDTH 7 0
BBX 1 1 0 0
BITMAP
00
ENDCHAR
STARTCHAR 0021
ENCODING 33
SWIDTH 360 0
DWIDTH 7 0
BBX 2 14 3 0
BITMAP
C0
C0
C0
C0
C0
C0
C0
C0
C0
C0
00
00
C0
C0
ENDCHAR
STARTCHAR 0022
ENCODING 34
SWIDTH 462 0
DWIDTH 9 0
BBX 6 5 2 10
BITMAP
CC
CC
CC
CC
CC
ENDCHAR
STARTCHAR 0023
ENCODING 35
SWIDTH 822 0
DWIDTH 16 0
BBX 12 14 2 0
BITMAP
0440
0440
0C80
0880
7FF0
0880
0880
1100
1100
FFE0
1100
1300
2200
2200
ENDCHAR
STARTCHAR 0024
ENCODING 36
SWIDTH 617 0
DWIDTH 12 0
BBX 9 18 2 -3
BITMAP
0800
0800
0800
3F80
7F80
C800
C800
E800
7C00
1F00
0980
0980
8980
FF00
7E00
0800
0800
0800
ENDCHAR
STARTCHAR 0025
ENCODING 37
SWIDTH 1028 0
DWIDTH 20 0
BBX 18 14 1 0
BITMAP
3C1800
441000
C63000
C62000
C66000
C64000
444F80
7C8880
0098C0
0198C0
0118C0
0318C0
020880
060F80
ENDCHAR
STARTCHAR 0026
ENCODING 38
SWIDTH 720 0
DWIDTH 14 0
BBX 13 14 1 0
BITMAP
1E00
7F00
6300
6300
6300
3E00
3C60
6660
C360
C1E0
C0C0
E1E0
7F30
3E18
ENDCHAR
STARTCHAR 0027
ENCODING 39
SWIDTH 257 0
DWIDTH 5 0
BBX 2 5 2 10
BITMAP
C0
C0
C0
C0
C0
ENDCHAR
STARTCHAR 0028
ENCODING 40
SWIDTH 462 0
DWIDTH 9 0
BBX 6 19 2 -4
BITMAP
1C
18
30
60
60
60
C0
C0
C0
C0
C0
C0
C0
60
60
60
30
18
1C
ENDCHAR
STARTCHAR 0029
ENCODING 41
SWIDTH 462 0
DWIDTH 9 0
BBX 6 19 1 -4
BITMAP
E0
60
30
18
18
18
0C
0C
0C
0C
0C
0C
0C
18
18
18
30
60
E0
ENDCHAR
STARTCHAR 002A
ENCODING 42
SWIDTH 617 0
DWIDTH 12 0
BBX 9 9 1 6
BITMAP
0800
8880
EB80
3E00
0800
3E00
EB80
8880
0800
ENDCHAR
STARTCHAR 002B
ENCODING 43
SWIDTH 822 0
DWIDTH 16 0
BBX 12 12 2 0
BITMAP
0600
0600
0600
0600
0600
FFF0
FFF0
0600
0600
0600
0600
0600
ENDCHAR
STARTCHAR 002C
ENCODING 44
SWIDTH 360 0
DWIDTH 7 0
BBX 4 6 1 -3
BITMAP
30
60
60
40
C0
C0
ENDCHAR
STARTCHAR 002D
ENCODING 45
SWIDTH 462 0
DWIDTH 9 0
BBX 6 2 1 5
BITMAP
FC
FC
ENDCHAR
STARTCHAR 002E
ENCODING 46
SWIDTH 360 0
DWIDTH 7 0
BBX 2 3 2 0
BITMAP
C0
C0
C0
ENDCHAR
STARTCHAR 002F
ENCODING 47
SWIDTH 462 0
DWIDTH 9 0
BBX 8 18 0 -3
BITMAP
03
07
06
06
0E
0C
0C
1C
18
18
38
30
30
70
60
60
E0
C0
ENDCHAR
STARTCHAR 0030
ENCODING 48
SWIDTH 617 0
DWIDTH 12 0
BBX 10 14 1 0
BITMAP
1E00
7F80
6180
C0C0
C0C0
C0C0
C0C0
C0C0
C0C0
C0C0
C0C0
6180
7F80
1E00
ENDCHAR
STARTCHAR 0031
ENCODING 49
SWIDTH 617 0
DWIDTH 12 0
BBX 8 14 2 0
BITMAP
18
18
F8
F8
18
18
18
18
18
18
18
18
FF
FF
ENDCHAR
STARTCHAR 0032
ENCODING 50
SWIDTH 617 0
DWIDTH 12 0
BBX 9 14 2 0
BITMAP
7C00
FE00
8700
0300
0300
0300
0600
0C00
1800
3000
6000
C000
FF80
FF80
ENDCHAR
STARTCHAR 0033
ENCODING 51
SWIDTH 617 0
DWIDTH 12 0
BBX 9 14 2 0
BITMAP
7E00
FF00
8380
0180
0180
0300
1E00
1F00
0380
0180
0180
8380
FF00
7E00
ENDCHAR
STARTCHAR 0034
ENCODING 52
SWIDTH 617 0
DWIDTH 12 0
BBX 10 14 1 0
BITMAP
0300
0700
0F00
1F00
1B00
3300
7300
E300
FFC0
FFC0
0300
0300
0300
0300
ENDCHAR
STARTCHAR 0035
ENCODING 53
SWIDTH 617 0
DWIDTH 12 0
BBX 9 14 2 0
BITMAP
7F80
7F80
6000
6000
6000
7E00
7F00
0380
0180
0180
0180
8300
FF00
7C00
ENDCHAR
STARTCHAR 0036
ENCODING 54
SWIDTH 617 0
DWIDTH 12 0
BBX 10 14 1 0
BITMAP
0F80
3F80
3000
6000
C000
DF00
FF80
C1C0
C0C0
C0C0
C0C0
6180
7F80
1E00
ENDCHAR
STARTCHAR 0037
ENCODING 55
SWIDTH 617 0
DWIDTH 12 0
BBX 9 14 1 0
BITMAP
FF80
FF80
0180
0300
0300
0600
0600
0C00
0C00
1800
1800
3000
3000
7000
ENDCHAR
STARTCHAR 0038
ENCODING 56
SWIDTH 617 0
DWIDTH 12 0
BBX 10 14 1 0
BITMAP
3F00
7F80
E1C0
C0C0
C0C0
7180
3E00
6780
C1C0
C0C0
C0C0
E1C0
7F80
3F00
ENDCHAR
STARTCHAR 0039
ENCODING 57
SWIDTH 617 0
DWIDTH 12 0
BBX 10 14 1 0
BITMAP
1E00
7F80
6180
C0C0
C0C0
C0C0
E0C0
7FC0
3EC0
00C0
0180
0380
7F00
7C00
ENDCHAR
STARTCHAR 003A
ENCODING 58
SWIDTH 462 0
DWIDTH 9 0
BBX 2 11 3 0
BITMAP
C0
C0
C0
00
00
00
00
00
C0
C0
C0
ENDCHAR
STARTCHAR 003B
ENCODING 59
SWIDTH 462 0
DWIDTH 9 0
BBX 4 14 2 -3
BITMAP
60
60
60
00
00
00
00
00
70
60
60
40
C0
C0
ENDCHAR
STARTCHAR 003C
ENCODING 60
SWIDTH 822 0
DWIDTH 16 0
BBX 11 11 2 1
BITMAP
0060
01E0
0780
1E00
7800
E000
7800
1E00
0780
01E0
0060
ENDCHAR
STARTCHAR 003D
ENCODING 61
SWIDTH 822 0
DWIDTH 16 0
BBX 11 6 2 3
BITMAP
FFE0
FFE0
0000
0000
FFE0
FFE0
ENDCHAR
STARTCHAR 003E
ENCODING 62
SWIDTH 822 0
DWIDTH 16 0
BBX 11 11 2 1
BITMAP
C000
F000
3C00
0F00
03C0
00E0
03C0
0F00
3C00
F000
C000
ENDCHAR
STARTCHAR 003F
ENCODING 63
SWIDTH 514 0
DWIDTH 10 0
BBX 8 14 1 0
BITMAP
7C
FE
87
03
03
06
0E
38
30
30
00
00
30
30
ENDCHAR
STARTCHAR 0040
ENCODING 64
SWIDTH 977 0
DWIDTH 19 0
BBX 16 16 2 -2
BITMAP
07E0
1C18
300C
6006
63F6
C633
CC33
CC33
CC33
CC33
CC33
6672
63BE
3000
1C10
07F0
ENDCHAR
STARTCHAR 0041
ENCODING 65
SWIDTH 668 0
DWIDTH 13 0
BBX 13 14 0 0
BITMAP
0700
0700
0D80
0D80
0D80
18C0
18C0
30E0
3FE0
3FE0
6030
6030
6030
C018
ENDCHAR
STARTCHAR 0042
ENCODING 66
SWIDTH 668 0
DWIDTH 13 0
BBX 10 14 2 0
BITMAP
FE00
FF80
C180
C180
C180
C300
FE00
FF80
C1C0
C0C0
C0C0
C1C0
FF80
FF00
ENDCHAR
STARTCHAR 0043
ENCODING 67
SWIDTH 668 0
DWIDTH 13 0
BBX 11 14 1 0
BITMAP
0FC0
3FE0
7020
6000
C000
C000
C000
C000
C000
C000
6000
7020
3FE0
0F80
ENDCHAR
STARTCHAR 0044
ENCODING 68
SWIDTH 771 0
DWIDTH 15 0
BBX 12 14 2 0
BITMAP
FF00
FF80
C1E0
C060
C070
C030
C030
C030
C030
C070
C060
C1C0
FF80
FF00
ENDCHAR
STARTCHAR 0045
ENCODING 69
SWIDTH 617 0
DWIDTH 12 0
BBX 9 14 2 0
BITMAP
FF80
FF80
C000
C000
C000
FF80
FF80
C000
C000
C000
C000
C000
FF80
FF80
ENDCHAR
STARTCHAR 0046
ENCODING 70
SWIDTH 565 0
DWIDTH 11 0
BBX 9 14 2 0
BITMAP
FF80
FF80
C000
C000
C000
C000
FF00
FF00
C000
C000
C000
C000
C000
C000
ENDCHAR
STARTCHAR 0047
ENCODING 71
SWIDTH 771 0
DWIDTH 15 0
BBX 13 14 1 0
BITMAP
0FE0
3FF8
7818
6000
E000
C000
C000
C1F8
C1F8
E018
6018
7818
3FF8
0FE0
ENDCHAR
STARTCHAR 0048
ENCODING 72
SWIDTH 720 0
DWIDTH 14 0
BBX 10 14 2 0
BITMAP
C0C0
C0C0
C0C0
C0C0
C0C0
FFC0
FFC0
C0C0
C0C0
C0C0
C0C0
C0C0
C0C0
C0C0
ENDCHAR
STARTCHAR 0049
ENCODING 73
SWIDTH 411 0
DWIDTH 8 0
BBX 6 14 1 0
BITMAP
FC
FC
30
30
30
30
30
30
30
30
30
30
FC
FC
ENDCHAR
STARTCHAR 004A
ENCODING 74
SWIDTH 462 0
DWIDTH 9 0
BBX 7 14 0 0
BITMAP
3E
3E
06
06
06
06
06
06
06
06
06
0E
FC
F8
ENDCHAR
STARTCHAR 004B
ENCODING 75
SWIDTH 668 0
DWIDTH 13 0
BBX 11 14 2 0
BITMAP
C0E0
C1C0
C380
C700
CE00
DC00
F800
FC00
EC00
C600
C300
C380
C1C0
C0E0
ENDCHAR
STARTCHAR 004C
ENCODING 76
SWIDTH 565 0
DWIDTH 11 0
BBX 9 14 2 0
BITMAP
C000
C000
C000
C000
C000
C000
C000
C000
C000
C000
C000
C000
FF80
FF80
ENDCHAR
STARTCHAR 004D
ENCODING 77
SWIDTH 822 0
DWIDTH 16 0
BBX 12 14 2 0
BITMAP
E070
E070
F0F0
D0B0
D9B0
C930
CD30
CF30
C630
C630
C030
C030
C030
C030
ENDCHAR
STARTCHAR 004E
ENCODING 78
SWIDTH 720 0
DWIDTH 14 0
BBX 10 14 2 0
BITMAP
E0C0
F0C0
F0C0
D0C0
D8C0
C8C0
CCC0
C4C0
C6C0
C2C0
C3C0
C3C0
C1C0
C1C0
ENDCHAR
STARTCHAR 004F
ENCODING 79
SWIDTH 771 0
DWIDTH 15 0
BBX 13 14 1 0
BITMAP
0F80
3FE0
7070
6030
C018
C018
C018
C018
C018
C018
6030
7070
3FE0
0F80
ENDCHAR
STARTCHAR 0050
ENCODING 80
SWIDTH 565 0
DWIDTH 11 0
BBX 8 14 2 0
BITMAP
FC
FE
C7
C3
C3
C3
C7
FE
FC
C0
C0
C0
C0
C0
ENDCHAR
STARTCHAR 0051
ENCODING 81
SWIDTH 771 0
DWIDTH 15 0
BBX 13 18 1 -4
BITMAP
0F80
3FE0
7070
6030
C018
C018
C018
C018
C018
C018
6030
7070
3FE0
0F80
0180
01C0
00F8
0078
ENDCHAR
STARTCHAR 0052
ENCODING 82
SWIDTH 668 0
DWIDTH 13 0
BBX 11 14 2 0
BITMAP
FE00
FF00
C380
C180
C180
C380
FF00
FC00
C600
C700
C300
C180
C0C0
C0E0
ENDCHAR
STARTCHAR 0053
ENCODING 83
SWIDTH 668 0
DWIDTH 13 0
BBX 11 14 1 0
BITMAP
3F80
7FC0
E040
C000
C000
E000
7F00
1FC0
00E0
0060
0060
C0E0
FFC0
7F00
ENDCHAR
STARTCHAR 0054
ENCODING 84
SWIDTH 617 0
DWIDTH 12 0
BBX 12 14 0 0
BITMAP
FFF0
FFF0
0600
0600
0600
0600
0600
0600
0600
0600
0600
0600
0600
0600
ENDCHAR
STARTCHAR 0055
ENCODING 85
SWIDTH 720 0
DWIDTH 14 0
BBX 10 14 2 0
BITMAP
C0C0
C0C0
C0C0
C0C0
C0C0
C0C0
C0C0
C0C0
C0C0
C0C0
C0C0
6180
7F80
1F00
ENDCHAR
STARTCHAR 0056
ENCODING 86
SWIDTH 668 0
DWIDTH 13 0
BBX 13 14 0 0
BITMAP
C018
6030
6030
6030
3060
3060
38E0
18C0
18C0
0D80
0D80
0D80
0700
0700
ENDCHAR
STARTCHAR 0057
ENCODING 87
SWIDTH 977 0
DWIDTH 19 0
BBX 17 14 1 0
BITMAP
C1C180
C1C180
614300
614300
616300
636300
322600
322600
323600
363600
141400
1C1C00
1C1C00
0C1C00
ENDCHAR
STARTCHAR 0058
ENCODING 88
SWIDTH 668 0
DWIDTH 13 0
BBX 11 14 1 0
BITMAP
E0E0
60C0
3180
3180
1B00
0A00
0E00
0E00
0B00
1B00
3180
3180
60C0
E0E0
ENDCHAR
STARTCHAR 0059
ENCODING 89
SWIDTH 617 0
DWIDTH 12 0
BBX 12 14 0 0
BITMAP
E070
6060
30C0
30C0
1980
1F80
0F00
0600
0600
0600
0600
0600
0600
0600
ENDCHAR
STARTCHAR 005A
ENCODING 90
SWIDTH 668 0
DWIDTH 13 0
BBX 11 14 1 0
BITMAP
FFE0
FFE0
00E0
01C0
0380
0700
0600
0C00
1C00
3800
7000
E000
FFE0
FFE0
ENDCHAR
STARTCHAR 005B
ENCODING 91
SWIDTH 462 0
DWIDTH 9 0
BBX 5 19 2 -4
BITMAP
F8
C0
C0
C0
C0
C0
C0
C0
C0
C0
C0
C0
C0
C0
C0
C0
C0
C0
F8
ENDCHAR
STARTCHAR 005C
ENCODING 92
SWIDTH 462 0
DWIDTH 9 0
BBX 8 18 1 -3
BITMAP
C0
E0
60
60
70
30
30
38
18
18
1C
0C
0C
0E
06
06
07
03
ENDCHAR
STARTCHAR 005D
ENCODING 93
SWIDTH 462 0
DWIDTH 9 0
BBX 5 19 2 -4
BITMAP
F8
18
18
18
18
18
18
18
18
18
18
18
18
18
18
18
18
18
F8
ENDCHAR
STARTCHAR 005E
ENCODING 94
SWIDTH 822 0
DWIDTH 16 0
BBX 12 7 2 7
BITMAP
0600
0F00
1980
1980
30C0
6060
C030
ENDCHAR
STARTCHAR 005F
ENCODING 95
SWIDTH 617 0
DWIDTH 12 0
BBX 12 1 0 -3
BITMAP
FFF0
ENDCHAR
STARTCHAR 0060
ENCODING 96
SWIDTH 617 0
DWIDTH 12 0
BBX 4 3 3 12
BITMAP
E0
60
30
ENDCHAR
STARTCHAR 0061
ENCODING 97
SWIDTH 565 0
DWIDTH 11 0
BBX 8 11 1 0
BITMAP
7C
7E
03
03
3F
7F
E3
C3
C7
FF
7B
ENDCHAR
STARTCHAR 0062
ENCODING 98
SWIDTH 617 0
DWIDTH 12 0
BBX 9 15 2 0
BITMAP
C000
C000
C000
C000
DE00
FF00
E380
C180
C180
C180
C180
C180
C300
FF00
FE00
ENDCHAR
STARTCHAR 0063
ENCODING 99
SWIDTH 514 0
DWIDTH 10 0
BBX 8 11 1 0
BITMAP
1E
7F
61
C0
C0
C0
C0
C0
61
7F
1E
ENDCHAR
STARTCHAR 0064
ENCODING 100
SWIDTH 617 0
DWIDTH 12 0
BBX 9 15 1 0
BITMAP
0180
0180
0180
0180
3F80
7F80
6180
C180
C180
C180
C180
C180
E380
7F80
3D80
ENDCHAR
STARTCHAR 0065
ENCODING 101
SWIDTH 565 0
DWIDTH 11 0
BBX 9 11 1 0
BITMAP
1E00
7F00
6380
C180
FF80
FF80
C000
C000
6080
7F80
1F00
ENDCHAR
STARTCHAR 0066
ENCODING 102
SWIDTH 360 0
DWIDTH 7 0
BBX 6 15 1 0
BITMAP
3C
7C
60
60
F8
F8
60
60
60
60
60
60
60
60
60
ENDCHAR
STARTCHAR 0067
ENCODING 103
SWIDTH 617 0
DWIDTH 12 0
BBX 9 15 1 -4
BITMAP
3F80
7F80
6180
C180
C180
C180
C180
C180
E380
7F80
3D80
0180
0380
7F00
7E00
ENDCHAR
STARTCHAR 0068
ENCODING 104
SWIDTH 617 0
DWIDTH 12 0
BBX 8 15 2 0
BITMAP
C0
C0
C0
C0
DE
FF
E3
C3
C3
C3
C3
C3
C3
C3
C3
ENDCHAR
STARTCHAR 0069
ENCODING 105
SWIDTH 308 0
DWIDTH 6 0
BBX 2 14 2 0
BITMAP
C0
C0
00
C0
C0
C0
C0
C0
C0
C0
C0
C0
C0
C0
ENDCHAR
STARTCHAR 006A
ENCODING 106
SWIDTH 360 0
DWIDTH 7 0
BBX 5 18 0 -4
BITMAP
18
18
00
78
78
18
18
18
18
18
18
18
18
18
18
18
F8
F0
ENDCHAR
STARTCHAR 006B
ENCODING 107
SWIDTH 565 0
DWIDTH 11 0
BBX 9 15 2 0
BITMAP
C000
C000
C000
C000
C380
C300
C600
CC00
D800
F800
F800
CC00
C600
C700
C380
ENDCHAR
STARTCHAR 006C
ENCODING 108
SWIDTH 308 0
DWIDTH 6 0
BBX 2 15 2 0
BITMAP
C0
C0
C0
C0
C0
C0
C0
C0
C0
C0
C0
C0
C0
C0
C0
ENDCHAR
STARTCHAR 006D
ENCODING 109
SWIDTH 925 0
DWIDTH 18 0
BBX 14 11 2 0
BITMAP
DE78
FFFC
E38C
C30C
C30C
C30C
C30C
C30C
C30C
C30C
C30C
ENDCHAR
STARTCHAR 006E
ENCODING 110
SWIDTH 617 0
DWIDTH 12 0
BBX 8 11 2 0
BITMAP
DE
FF
E3
C3
C3
C3
C3
C3
C3
C3
C3
ENDCHAR
STARTCHAR 006F
ENCODING 111
SWIDTH 617 0
DWIDTH 12 0
BBX 10 11 1 0
BITMAP
1E00
7F80
6180
C0C0
C0C0
C0C0
C0C0
C0C0
6180
7F80
1E00
ENDCHAR
STARTCHAR 0070
ENCODING 112
SWIDTH 617 0
DWIDTH 12 0
BBX 9 15 2 -4
BITMAP
DE00
FF00
E380
C180
C180
C180
C180
C180
C300
FF00
FE00
C000
C000
C000
C000
ENDCHAR
STARTCHAR 0071
ENCODING 113
SWIDTH 617 0
DWIDTH 12 0
BBX 9 15 1 -4
BITMAP
3F80
7F80
6180
C180
C180
C180
C180
C180
E380
7F80
3D80
0180
0180
0180
0180
ENDCHAR
STARTCHAR 0072
ENCODING 114
SWIDTH 411 0
DWIDTH 8 0
BBX 6 11 2 0
BITMAP
DC
FC
E0
C0
C0
C0
C0
C0
C0
C0
C0
ENDCHAR
STARTCHAR 0073
ENCODING 115
SWIDTH 514 0
DWIDTH 10 0
BBX 8 11 1 0
BITMAP
3E
7F
C1
C0
F0
7E
0F
03
83
FE
7C
ENDCHAR
STARTCHAR 0074
ENCODING 116
SWIDTH 360 0
DWIDTH 7 0
BBX 6 14 1 0
BITMAP
60
60
60
FC
FC
60
60
60
60
60
60
60
7C
3C
ENDCHAR
STARTCHAR 0075
ENCODING 117
SWIDTH 617 0
DWIDTH 12 0
BBX 8 11 2 0
BITMAP
C3
C3
C3
C3
C3
C3
C3
C3
C7
FF
7B
ENDCHAR
STARTCHAR 0076
ENCODING 118
SWIDTH 565 0
DWIDTH 11 0
BBX 9 11 1 0
BITMAP
C180
6300
6300
6300
2200
3600
3600
1400
1400
1C00
0800
ENDCHAR
STARTCHAR 0077
ENCODING 119
SWIDTH 822 0
DWIDTH 16 0
BBX 14 11 1 0
BITMAP
C30C
C30C
6398
6798
6498
6498
2CD0
3850
3870
3870
1820
ENDCHAR
STARTCHAR 0078
ENCODING 120
SWIDTH 565 0
DWIDTH 11 0
BBX 9 11 1 0
BITMAP
E380
6300
3600
3600
1C00
0800
1C00
3600
3600
6300
E380
ENDCHAR
STARTCHAR 0079
ENCODING 121
SWIDTH 565 0
DWIDTH 11 0
BBX 9 15 1 -4
BITMAP
C180
6300
6300
6300
3600
3600
3600
1400
1C00
1C00
0800
1800
1800
3000
3000
ENDCHAR
STARTCHAR 007A
ENCODING 122
SWIDTH 514 0
DWIDTH 10 0
BBX 8 11 1 0
BITMAP
FF
FF
07
06
0C
18
30
60
E0
FF
FF
ENDCHAR
STARTCHAR 007B
ENCODING 123
SWIDTH 617 0
DWIDTH 12 0
BBX 9 19 1 -4
BITMAP
0380
0600
0C00
0C00
0C00
0C00
0C00
0C00
1800
E000
1800
0C00
0C00
0C00
0C00
0C00
0C00
0600
0380
ENDCHAR
STARTCHAR 007C
ENCODING 124
SWIDTH 462 0
DWIDTH 9 0
BBX 2 19 4 -4
BITMAP
C0
C0
C0
C0
C0
C0
C0
C0
C0
C0
C0
C0
C0
C0
C0
C0
C0
C0
C0
ENDCHAR
STARTCHAR 007D
ENCODING 125
SWIDTH 617 0
DWIDTH 12 0
BBX 9 19 2 -4
BITMAP
E000
3000
1800
1800
1800
1800
1800
1800
0C00
0380
0C00
1800
1800
1800
1800
1800
1800
3000
E000
ENDCHAR
STARTCHAR 007E
ENCODING 126
SWIDTH 822 0
DWIDTH 16 0
BBX 12 5 2 4
BITMAP
3830
7C30
E670
C3E0
C1C0
ENDCHAR
STARTCHAR 00A0
ENCODING 160
SWIDTH 360 0
DWIDTH 7 0
BBX 1 1 0 0
BITMAP
00
ENDCHAR
STARTCHAR 00A1
ENCODING 161
SWIDTH 360 0
DWIDTH 7 0
BBX 2 14 3 0
BITMAP
C0
C0
00
00
C0
C0
C0
C0
C0
C0
C0
C0
C0
C0
ENDCHAR
STARTCHAR 00A2
ENCODING 162
SWIDTH 617 0
DWIDTH 12 0
BBX 9 17 1 -3
BITMAP
0400
0400
0400
1F00
3F80
7480
C400
C400
C400
C400
C400
6480
7F80
1F00
0400
0400
0400
ENDCHAR
STARTCHAR 00A3
ENCODING 163
SWIDTH 617 0
DWIDTH 12 0
BBX 10 14 1 0
BITMAP
0FC0
1FC0
3800
3000
3000
3000
3000
FF00
FF00
3000
3000
6000
FFC0
FFC0
ENDCHAR
STARTCHAR 00A4
ENCODING 164
SWIDTH 617 0
DWIDTH 12 0
BBX 10 10 1 1
BITMAP
4080
E1C0
7F80
3F00
3300
3300
3F00
7F80
E1C0
4080
ENDCHAR
STARTCHAR 00A5
ENCODING 165
SWIDTH 617 0
DWIDTH 12 0
BBX 10 14 1 0
BITMAP
C0C0
6180
6180
3300
3300
1E00
1E00
0C00
0C00
7F80
7F80
0C00
0C00
0C00
ENDCHAR
STARTCHAR 00A6
ENCODING 166
SWIDTH 462 0
DWIDTH 9 0
BBX 2 19 4 -4
BITMAP
C0
C0
C0
C0
C0
C0
C0
C0
00
00
00
C0
C0
C0
C0
C0
C0
C0
C0
ENDCHAR
STARTCHAR 00A7
ENCODING 167
SWIDTH 617 0
DWIDTH 12 0
BBX 9 18 2 -4
BITMAP
3F00
7F00
C100
C000
E000
7C00
7F00
4380
C180
C180
E100
7F00
1F00
0380
0180
4180
7F00
7E00
ENDCHAR
STARTCHAR 00A8
ENCODING 168
SWIDTH 617 0
DWIDTH 12 0
BBX 6 2 3 12
BITMAP
CC
CC
ENDCHAR
STARTCHAR 00A9
ENCODING 169
SWIDTH 977 0
DWIDTH 19 0
BBX 16 16 1 -2
BITMAP
07E0
1818
300C
63F6
4612
8C01
8C01
8C01
8C01
8C01
8611
43F2
6006
300C
1818
07E0
ENDCHAR
STARTCHAR 00AA
ENCODING 170
SWIDTH 514 0
DWIDTH 10 0
BBX 7 9 1 5
BITMAP
7C
46
06
3E
E6
C6
C6
CE
76
ENDCHAR
STARTCHAR 00AB
ENCODING 171
SWIDTH 617 0
DWIDTH 12 0
BBX 9 9 2 2
BITMAP
0880
1980
3300
6600
CC00
6600
3300
1980
0880
ENDCHAR
STARTCHAR 00AC
ENCODING 172
SWIDTH 822 0
DWIDTH 16 0
BBX 12 7 2 0
BITMAP
FFF0
FFF0
0030
0030
0030
0030
0030
ENDCHAR
STARTCHAR 00AD
ENCODING 173
SWIDTH 462 0
DWIDTH 9 0
BBX 6 2 1 5
BITMAP
FC
FC
ENDCHAR
STARTCHAR 00AE
ENCODING 174
SWIDTH 977 0
DWIDTH 19 0
BBX 16 16 1 -2
BITMAP
07E0
1818
300C
6006
47E2
8631
8631
8631
87C1
86E1
8671
463A
6006
300C
1818
07E0
ENDCHAR
STARTCHAR 00AF
ENCODING 175
SWIDTH 617 0
DWIDTH 12 0
BBX 12 1 0 16
BITMAP
FFF0
ENDCHAR
STARTCHAR 00B0
ENCODING 176
SWIDTH 514 0
DWIDTH 10 0
BBX 7 7 1 7
BITMAP
38
7C
C6
C6
C6
7C
38
ENDCHAR
STARTCHAR 00B1
ENCODING 177
SWIDTH 822 0
DWIDTH 16 0
BBX 12 12 2 2
BITMAP
0600
0600
0600
0600
0600
FFF0
FFF0
0600
0600
0600
FFF0
FFF0
ENDCHAR
STARTCHAR 00B2
ENCODING 178
SWIDTH 514 0
DWIDTH 10 0
BBX 8 9 2 5
BITMAP
FC
86
06
06
0E
1C
30
60
FF
ENDCHAR
STARTCHAR 00B3
ENCODING 179
SWIDTH 514 0
DWIDTH 10 0
BBX 7 9 2 5
BITMAP
FC
86
06
06
38
06
06
86
FC
ENDCHAR
STARTCHAR 00B4
ENCODING 180
SWIDTH 617 0
DWIDTH 12 0
BBX 4 3 5 12
BITMAP
70
60
C0
ENDCHAR
STARTCHAR 00B5
ENCODING 181
SWIDTH 617 0
DWIDTH 12 0
BBX 8 15 2 -4
BITMAP
C3
C3
C3
C3
C3
C3
C3
C3
E7
FF
DB
C0
C0
C0
C0
ENDCHAR
STARTCHAR 00B6
ENCODING 182
SWIDTH 617 0
DWIDTH 12 0
BBX 9 17 1 -3
BITMAP
3F80
7D80
FD80
FD80
FD80
FD80
7D80
3D80
0D80
0D80
0D80
0D80
0D80
0D80
0D80
0D80
0D80
ENDCHAR
STARTCHAR 00B7
ENCODING 183
SWIDTH 360 0
DWIDTH 7 0
BBX 2 3 2 5
BITMAP
C0
C0
C0
ENDCHAR
STARTCHAR 00B8
ENCODING 184
SWIDTH 617 0
DWIDTH 12 0
BBX 5 4 3 -4
BITMAP
18
18
18
F0
ENDCHAR
STARTCHAR 00B9
ENCODING 185
SWIDTH 514 0
DWIDTH 10 0
BBX 6 9 3 5
BITMAP
30
F0
30
30
30
30
30
30
FC
ENDCHAR
STARTCHAR 00BA
ENCODING 186
SWIDTH 514 0
DWIDTH 10 0
BBX 8 9 1 5
BITMAP
3C
66
C3
C3
C3
C3
C3
66
3C
ENDCHAR
STARTCHAR 00BB
ENCODING 187
SWIDTH 617 0
DWIDTH 12 0
BBX 9 9 2 2
BITMAP
8800
CC00
6600
3300
1980
3300
6600
CC00
8800
ENDCHAR
STARTCHAR 00BC
ENCODING 188
SWIDTH 977 0
DWIDTH 19 0
BBX 16 14 2 0
BITMAP
3060
F040
30C0
3080
3180
310C
331C
363C
346C
0C4C
088C
18FF
100C
300C
ENDCHAR
STARTCHAR 00BD
ENCODING 189
SWIDTH 977 0
DWIDTH 19 0
BBX 17 14 2 0
BITMAP
306000
F04000
30C000
308000
318000
313E00
332300
360300
340300
0C0700
080600
180C00
103000
303F80
ENDCHAR
STARTCHAR 00BE
ENCODING 190
SWIDTH 977 0
DWIDTH 19 0
BBX 18 14 1 0
BITMAP
F81800
8C1000
0C3000
0C2000
706000
0C4300
0CC700
8D8F00
F91B00
031300
022300
063FC0
040300
0C0300
ENDCHAR
STARTCHAR 00BF
ENCODING 191
SWIDTH 514 0
DWIDTH 10 0
BBX 8 14 1 0
BITMAP
0C
0C
00
00
0C
0C
1C
70
60
C0
C0
E1
7F
3E
ENDCHAR
STARTCHAR 00C0
ENCODING 192
SWIDTH 668 0
DWIDTH 13 0
BBX 13 18 0 0
BITMAP
0E00
0600
0300
0000
0700
0700
0D80
0D80
0D80
18C0
18C0
30E0
3FE0
3FE0
6030
6030
6030
C018
ENDCHAR
STARTCHAR 00C1
ENCODING 193
SWIDTH 668 0
DWIDTH 13 0
BBX 13 18 0 0
BITMAP
0380
0300
0600
0000
0700
0700
0D80
0D80
0D80
18C0
18C0
30E0
3FE0
3FE0
6030
6030
6030
C018
ENDCHAR
STARTCHAR 00C2
ENCODING 194
SWIDTH 668 0
DWIDTH 13 0
BBX 13 19 0 0
BITMAP
0300
0780
0480
0CC0
0000
0700
0700
0D80
0D80
0D80
18C0
18C0
30E0
3FE0
3FE0
6030
6030
6030
C018
ENDCHAR
STARTCHAR 00C3
ENCODING 195
SWIDTH 668 0
DWIDTH 13 0
BBX 13 18 0 0
BITMAP
0E20
1320
11C0
0000
0700
0700
0D80
0D80
0D80
18C0
18C0
30E0
3FE0
3FE0
6030
6030
6030
C018
ENDCHAR
STARTCHAR 00C4
ENCODING 196
SWIDTH 668 0
DWIDTH 13 0
BBX 13 17 0 0
BITMAP
0CC0
0CC0
0000
0700
0700
0D80
0D80
0D80
18C0
18C0
30E0
3FE0
3FE0
6030
6030
6030
C018
ENDCHAR
STARTCHAR 00C5
ENCODING 197
SWIDTH 668 0
DWIDTH 13 0
BBX 13 19 0 0
BITMAP
0700
18C0
18C0
18C0
18C0
0F80
0700
0D80
0D80
0D80
18C0
18C0
38E0
3060
3FE0
7FF0
6030
6030
C018
ENDCHAR
STARTCHAR 00C6
ENCODING 198
SWIDTH 977 0
DWIDTH 19 0
BBX 18 14 0 0
BITMAP
07FFC0
07FFC0
066000
0C6000
0C6000
1C7FC0
187FC0
1FE000
3FE000
306000
706000
606000
607FC0
C07FC0
ENDCHAR
STARTCHAR 00C7
ENCODING 199
SWIDTH 668 0
DWIDTH 13 0
BBX 11 18 1 -4
BITMAP
0FC0
3FE0
7020
6000
C000
C000
C000
C000
C000
C000
6000
7020
3FE0
0FC0
0180
0180
0F80
0F00
ENDCHAR
STARTCHAR 00C8
ENCODING 200
SWIDTH 617 0
DWIDTH 12 0
BBX 9 18 2 0
BITMAP
3800
1800
0C00
0000
FF80
FF80
C000
C000
C000
FF80
FF80
C000
C000
C000
C000
C000
FF80
FF80
ENDCHAR
STARTCHAR 00C9
ENCODING 201
SWIDTH 617 0
DWIDTH 12 0
BBX 9 18 2 0
BITMAP
0E00
0C00
1800
0000
FF80
FF80
C000
C000
C000
FF80
FF80
C000
C000
C000
C000
C000
FF80
FF80
ENDCHAR
STARTCHAR 00CA
ENCODING 202
SWIDTH 617 0
DWIDTH 12 0
BBX 9 19 2 0
BITMAP
0C00
1E00
1200
3300
0000
FF80
FF80
C000
C000
C000
FF80
FF80
C000
C000
C000
C000
C000
FF80
FF80
ENDCHAR
STARTCHAR 00CB
ENCODING 203
SWIDTH 617 0
DWIDTH 12 0
BBX 9 17 2 0
BITMAP
3300
3300
0000
FF80
FF80
C000
C000
C000
FF80
FF80
C000
C000
C000
C000
C000
FF80
FF80
ENDCHAR
STARTCHAR 00CC
ENCODING 204
SWIDTH 411 0
DWIDTH 8 0
BBX 6 18 1 0
BITMAP
70
30
18
00
FC
FC
30
30
30
30
30
30
30
30
30
30
FC
FC
ENDCHAR
STARTCHAR 00CD
ENCODING 205
SWIDTH 411 0
DWIDTH 8 0
BBX 6 18 1 0
BITMAP
1C
18
30
00
FC
FC
30
30
30
30
30
30
30
30
30
30
FC
FC
ENDCHAR
STARTCHAR 00CE
ENCODING 206
SWIDTH 411 0
DWIDTH 8 0
BBX 6 19 1 0
BITMAP
30
78
48
CC
00
FC
FC
30
30
30
30
30
30
30
30
30
30
FC
FC
ENDCHAR
STARTCHAR 00CF
ENCODING 207
SWIDTH 411 0
DWIDTH 8 0
BBX 6 17 1 0
BITMAP
CC
CC
00
FC
FC
30
30
30
30
30
30
30
30
30
30
FC
FC
ENDCHAR
STARTCHAR 00D0
ENCODING 208
SWIDTH 771 0
DWIDTH 15 0
BBX 14 14 0 0
BITMAP
3FC0
3FE0
3078
3018
301C
300C
FE0C
FE0C
300C
301C
3018
3070
3FE0
3FC0
ENDCHAR
STARTCHAR 00D1
ENCODING 209
SWIDTH 720 0
DWIDTH 14 0
BBX 10 18 2 0
BITMAP
3880
4C80
4700
0000
E0C0
F0C0
F0C0
D0C0
D8C0
C8C0
CCC0
C4C0
C6C0
C2C0
C3C0
C3C0
C1C0
C1C0
ENDCHAR
STARTCHAR 00D2
ENCODING 210
SWIDTH 771 0
DWIDTH 15 0
BBX 13 18 1 0
BITMAP
0E00
0600
0300
0000
0F80
3FE0
7070
6030
C018
C018
C018
C018
C018
C018
6030
7070
3FE0
0F80
ENDCHAR
STARTCHAR 00D3
ENCODING 211
SWIDTH 771 0
DWIDTH 15 0
BBX 13 18 1 0
BITMAP
0380
0300
0600
0000
0F80
3FE0
7070
6030
C018
C018
C018
C018
C018
C018
6030
7070
3FE0
0F80
ENDCHAR
STARTCHAR 00D4
ENCODING 212
SWIDTH 771 0
DWIDTH 15 0
BBX 13 19 1 0
BITMAP
0300
0780
0480
0CC0
0000
0F80
3FE0
7070
6030
C018
C018
C018
C018
C018
C018
6030
7070
3FE0
0F80
ENDCHAR
STARTCHAR 00D5
ENCODING 213
SWIDTH 771 0
DWIDTH 15 0
BBX 13 18 1 0
BITMAP
0E20
1320
11C0
0000
0F80
3FE0
7070
6030
C018
C018
C018
C018
C018
C018
6030
7070
3FE0
0F80
ENDCHAR
STARTCHAR 00D6
ENCODING 214
SWIDTH 771 0
DWIDTH 15 0
BBX 13 17 1 0
BITMAP
0CC0
0CC0
0000
0F80
3FE0
7070
6030
C018
C018
C018
C018
C018
C018
6030
7070
3FE0
0F80
ENDCHAR
STARTCHAR 00D7
ENCODING 215
SWIDTH 822 0
DWIDTH 16 0
BBX 11 11 2 1
BITMAP
4040
E0E0
71C0
3B80
1F00
0E00
1F00
3B80
71C0
E0E0
4040
ENDCHAR
STARTCHAR 00D8
ENCODING 216
SWIDTH 771 0
DWIDTH 15 0
BBX 13 16 1 -1
BITMAP
0010
0F90
3FE0
7070
6070
C098
C118
C218
C618
C418
C818
7030
7070
3FE0
4F80
4000
ENDCHAR
STARTCHAR 00D9
ENCODING 217
SWIDTH 720 0
DWIDTH 14 0
BBX 10 18 2 0
BITMAP
1C00
0C00
0600
0000
C0C0
C0C0
C0C0
C0C0
C0C0
C0C0
C0C0
C0C0
C0C0
C0C0
C0C0
6180
7F80
1F00
ENDCHAR
STARTCHAR 00DA
ENCODING 218
SWIDTH 720 0
DWIDTH 14 0
BBX 10 18 2 0
BITMAP
0380
0300
0600
0000
C0C0
C0C0
C0C0
C0C0
C0C0
C0C0
C0C0
C0C0
C0C0
C0C0
C0C0
6180
7F80
1F00
ENDCHAR
STARTCHAR 00DB
ENCODING 219
SWIDTH 720 0
DWIDTH 14 0
BBX 10 19 2 0
BITMAP
0C00
1E00
1200
3300
0000
C0C0
C0C0
C0C0
C0C0
C0C0
C0C0
C0C0
C0C0
C0C0
C0C0
C0C0
6180
7F80
1F00
ENDCHAR
STARTCHAR 00DC
ENCODING 220
SWIDTH 720 0
DWIDTH 14 0
BBX 10 17 2 0
BITMAP
3300
3300
0000
C0C0
C0C0
C0C0
C0C0
C0C0
C0C0
C0C0
C0C0
C0C0
C0C0
C0C0
6180
7F80
1F00
ENDCHAR
STARTCHAR 00DD
ENCODING 221
SWIDTH 617 0
DWIDTH 12 0
BBX 12 18 0 0
BITMAP
01C0
0180
0300
0000
E070
6060
30C0
30C0
1980
1F80
0F00
0600
0600
0600
0600
0600
0600
0600
ENDCHAR
STARTCHAR 00DE
ENCODING 222
SWIDTH 617 0
DWIDTH 12 0
BBX 9 14 2 0
BITMAP
C000
C000
C000
FE00
FF00
C380
C180
C180
C380
FF00
FE00
C000
C000
C000
ENDCHAR
STARTCHAR 00DF
ENCODING 223
SWIDTH 617 0
DWIDTH 12 0
BBX 9 15 2 0
BITMAP
3C00
7E00
E300
C300
C300
C600
CE00
CF00
C300
C180
C180
C180
C380
DF00
DE00
ENDCHAR
STARTCHAR 00E0
ENCODING 224
SWIDTH 565 0
DWIDTH 11 0
BBX 8 15 1 0
BITMAP
38
18
0C
00
7C
7E
03
03
3F
7F
E3
C3
C7
FF
7B
ENDCHAR
STARTCHAR 00E1
ENCODING 225
SWIDTH 565 0
DWIDTH 11 0
BBX 8 15 1 0
BITMAP
07
06
0C
00
7C
7E
03
03
3F
7F
E3
C3
C7
FF
7B
ENDCHAR
STARTCHAR 00E2
ENCODING 226
SWIDTH 565 0
DWIDTH 11 0
BBX 8 16 1 0
BITMAP
0C
1E
12
33
00
7C
7E
03
03
3F
7F
E3
C3
C7
FF
7B
ENDCHAR
STARTCHAR 00E3
ENCODING 227
SWIDTH 565 0
DWIDTH 11 0
BBX 9 15 1 0
BITMAP
3880
4C80
4700
0000
7C00
7E00
0300
0300
3F00
7F00
E300
C300
C700
FF00
7B00
ENDCHAR
STARTCHAR 00E4
ENCODING 228
SWIDTH 565 0
DWIDTH 11 0
BBX 8 14 1 0
BITMAP
33
33
00
7C
7E
03
03
3F
7F
E3
C3
C7
FF
7B
ENDCHAR
STARTCHAR 00E5
ENCODING 229
SWIDTH 565 0
DWIDTH 11 0
BBX 8 18 1 0
BITMAP
1E
33
33
33
33
1E
00
7C
7E
03
03
3F
7F
E3
C3
C7
FF
7B
ENDCHAR
STARTCHAR 00E6
ENCODING 230
SWIDTH 925 0
DWIDTH 18 0
BBX 16 11 1 0
BITMAP
7E3C
7FFE
01C7
0183
3FFF
7FFF
E180
C180
C3C1
FEFF
3C3E
ENDCHAR
STARTCHAR 00E7
ENCODING 231
SWIDTH 514 0
DWIDTH 10 0
BBX 8 15 1 -4
BITMAP
1E
7F
61
C0
C0
C0
C0
C0
61
7F
1E
06
06
3E
3C
ENDCHAR
STARTCHAR 00E8
ENCODING 232
SWIDTH 565 0
DWIDTH 11 0
BBX 9 15 1 0
BITMAP
7000
3000
1800
0000
1E00
7F00
6380
C180
FF80
FF80
C000
C000
6080
7F80
1F00
ENDCHAR
STARTCHAR 00E9
ENCODING 233
SWIDTH 565 0
DWIDTH 11 0
BBX 9 15 1 0
BITMAP
0700
0600
0C00
0000
1E00
7F00
6380
C180
FF80
FF80
C000
C000
6080
7F80
1F00
ENDCHAR
STARTCHAR 00EA
ENCODING 234
SWIDTH 565 0
DWIDTH 11 0
BBX 9 16 1 0
BITMAP
0C00
1E00
1200
3300
0000
1E00
7F00
6380
C180
FF80
FF80
C000
C000
6080
7F80
1F00
ENDCHAR
STARTCHAR 00EB
ENCODING 235
SWIDTH 565 0
DWIDTH 11 0
BBX 9 14 1 0
BITMAP
3300
3300
0000
1E00
7F00
6380
C180
FF80
FF80
C000
C000
6080
7F80
1F00
ENDCHAR
STARTCHAR 00EC
ENCODING 236
SWIDTH 308 0
DWIDTH 6 0
BBX 4 15 1 0
BITMAP
E0
60
30
00
60
60
60
60
60
60
60
60
60
60
60
ENDCHAR
STARTCHAR 00ED
ENCODING 237
SWIDTH 308 0
DWIDTH 6 0
BBX 4 15 2 0
BITMAP
70
60
C0
00
C0
C0
C0
C0
C0
C0
C0
C0
C0
C0
C0
ENDCHAR
STARTCHAR 00EE
ENCODING 238
SWIDTH 308 0
DWIDTH 6 0
BBX 6 16 0 0
BITMAP
30
78
48
CC
00
30
30
30
30
30
30
30
30
30
30
30
ENDCHAR
STARTCHAR 00EF
ENCODING 239
SWIDTH 308 0
DWIDTH 6 0
BBX 6 14 0 0
BITMAP
CC
CC
00
30
30
30
30
30
30
30
30
30
30
30
ENDCHAR
STARTCHAR 00F0
ENCODING 240
SWIDTH 617 0
DWIDTH 12 0
BBX 10 14 1 0
BITMAP
3980
0E00
1F00
3300
0180
3EC0
7FC0
E0C0
C0C0
C0C0
C0C0
E180
7F80
3E00
ENDCHAR
STARTCHAR 00F1
ENCODING 241
SWIDTH 617 0
DWIDTH 12 0
BBX 8 15 2 0
BITMAP
71
99
8E
00
DE
FF
E3
C3
C3
C3
C3
C3
C3
C3
C3
ENDCHAR
STARTCHAR 00F2
ENCODING 242
SWIDTH 617 0
DWIDTH 12 0
BBX 10 15 1 0
BITMAP
1C00
0C00
0600
0000
1E00
7F80
6180
C0C0
C0C0
C0C0
C0C0
C0C0
6180
7F80
1E00
ENDCHAR
STARTCHAR 00F3
ENCODING 243
SWIDTH 617 0
DWIDTH 12 0
BBX 10 15 1 0
BITMAP
0700
0600
0C00
0000
1E00
7F80
6180
C0C0
C0C0
C0C0
C0C0
C0C0
6180
7F80
1E00
ENDCHAR
STARTCHAR 00F4
ENCODING 244
SWIDTH 617 0
DWIDTH 12 0
BBX 10 16 1 0
BITMAP
0C00
1E00
1200
3300
0000
1E00
7F80
6180
C0C0
C0C0
C0C0
C0C0
C0C0
6180
7F80
1E00
ENDCHAR
STARTCHAR 00F5
ENCODING 245
SWIDTH 617 0
DWIDTH 12 0
BBX 10 15 1 0
BITMAP
3880
4C80
4700
0000
1E00
7F80
6180
C0C0
C0C0
C0C0
C0C0
C0C0
6180
7F80
1E00
ENDCHAR
STARTCHAR 00F6
ENCODING 246
SWIDTH 617 0
DWIDTH 12 0
BBX 10 14 1 0
BITMAP
3300
3300
0000
1E00
7F80
6180
C0C0
C0C0
C0C0
C0C0
C0C0
6180
7F80
1E00
ENDCHAR
STARTCHAR 00F7
ENCODING 247
SWIDTH 822 0
DWIDTH 16 0
BBX 12 12 2 0
BITMAP
0600
0600
0600
0000
0000
FFF0
FFF0
0000
0000
0600
0600
0600
ENDCHAR
STARTCHAR 00F8
ENCODING 248
SWIDTH 617 0
DWIDTH 12 0
BBX 10 13 1 -1
BITMAP
0040
1E80
7F80
6180
C2C0
C4C0
C8C0
C8C0
D0C0
6180
7F80
5E00
8000
ENDCHAR
STARTCHAR 00F9
ENCODING 249
SWIDTH 617 0
DWIDTH 12 0
BBX 8 15 2 0
BITMAP
38
18
0C
00
C3
C3
C3
C3
C3
C3
C3
C3
C7
FF
7B
ENDCHAR
STARTCHAR 00FA
ENCODING 250
SWIDTH 617 0
DWIDTH 12 0
BBX 8 15 2 0
BITMAP
0E
0C
18
00
C3
C3
C3
C3
C3
C3
C3
C3
C7
FF
7B
ENDCHAR
STARTCHAR 00FB
ENCODING 251
SWIDTH 617 0
DWIDTH 12 0
BBX 8 16 2 0
BITMAP
18
3C
24
66
00
C3
C3
C3
C3
C3
C3
C3
C3
C7
FF
7B
ENDCHAR
STARTCHAR 00FC
ENCODING 252
SWIDTH 617 0
DWIDTH 12 0
BBX 8 14 2 0
BITMAP
66
66
00
C3
C3
C3
C3
C3
C3
C3
C3
C7
FF
7B
ENDCHAR
STARTCHAR 00FD
ENCODING 253
SWIDTH 565 0
DWIDTH 11 0
BBX 9 19 1 -4
BITMAP
0700
0600
0C00
0000
C180
6300
6300
6300
3600
3600
3600
1400
1C00
1C00
0800
1800
1800
3000
3000
ENDCHAR
STARTCHAR 00FE
ENCODING 254
SWIDTH 617 0
DWIDTH 12 0
BBX 9 19 2 -4
BITMAP
C000
C000
C000
C000
DE00
FF00
E380
C180
C180
C180
C180
C180
C300
FF00
FE00
C000
C000
C000
C000
ENDCHAR
STARTCHAR 00FF
ENCODING 255
SWIDTH 565 0
DWIDTH 11 0
BBX 9 18 1 -4
BITMAP
3300
3300
0000
C180
6300
6300
6300
3600
3600
3600
1400
1C00
1C00
0800
1800
1800
3000
3000
ENDCHAR
STARTCHAR 0100
ENCODING 256
SWIDTH 668 0
DWIDTH 13 0
BBX 13 16 0 0
BITMAP
1FC0
0000
0700
0700
0D80
0D80
0D80
18C0
18C0
30E0
3FE0
3FE0
6030
6030
6030
C018
ENDCHAR
STARTCHAR 0101
ENCODING 257
SWIDTH 565 0
DWIDTH 11 0
BBX 8 13 1 0
BITMAP
7F
00
7C
7E
03
03
3F
7F
E3
C3
C7
FF
7B
ENDCHAR
STARTCHAR 0102
ENCODING 258
SWIDTH 668 0
DWIDTH 13 0
BBX 13 19 0 0
BITMAP
18C0
18C0
0D80
0700
0000
0700
0700
0D80
0D80
0D80
18C0
18C0
30E0
3FE0
3FE0
6030
6030
6030
C018
ENDCHAR
STARTCHAR 0103
ENCODING 259
SWIDTH 565 0
DWIDTH 11 0
BBX 8 16 1 0
BITMAP
63
63
36
1C
00
7C
7E
03
03
3F
7F
E3
C3
C7
FF
7B
ENDCHAR
STARTCHAR 0104
ENCODING 260
SWIDTH 668 0
DWIDTH 13 0
BBX 14 18 0 -4
BITMAP
0700
0700
0D80
0D80
0D80
18C0
18C0
30E0
3FE0
3FE0
6030
6030
6030
C038
0030
0030
0030
001C
ENDCHAR
STARTCHAR 0105
ENCODING 261
SWIDTH 565 0
DWIDTH 11 0
BBX 10 15 1 -4
BITMAP
7C00
7E00
0300
0300
3F00
7F00
E300
C300
C700
FF00
7B00
0300
0300
0300
01C0
ENDCHAR
STARTCHAR 0106
ENCODING 262
SWIDTH 668 0
DWIDTH 13 0
BBX 11 18 1 0
BITMAP
0380
0300
0600
0000
0FC0
3FE0
7020
6000
C000
C000
C000
C000
C000
C000
6000
7020
3FE0
0F80
ENDCHAR
STARTCHAR 0107
ENCODING 263
SWIDTH 514 0
DWIDTH 10 0
BBX 8 15 1 0
BITMAP
07
06
0C
00
1E
7F
61
C0
C0
C0
C0
C0
61
7F
1E
ENDCHAR
STARTCHAR 0108
ENCODING 264
SWIDTH 668 0
DWIDTH 13 0
BBX 11 19 1 0
BITMAP
0300
0780
0480
0CC0
0000
0FC0
3FE0
7020
6000
C000
C000
C000
C000
C000
C000
6000
7020
3FE0
0F80
ENDCHAR
STARTCHAR 0109
ENCODING 265
SWIDTH 514 0
DWIDTH 10 0
BBX 8 16 1 0
BITMAP
0C
1E
12
33
00
1E
7F
61
C0
C0
C0
C0
C0
61
7F
1E
ENDCHAR
STARTCHAR 010A
ENCODING 266
SWIDTH 668 0
DWIDTH 13 0
BBX 11 17 1 0
BITMAP
0300
0300
0000
0FC0
3FE0
7020
6000
C000
C000
C000
C000
C000
C000
6000
7020
3FE0
0F80
ENDCHAR
STARTCHAR 010B
ENCODING 267
SWIDTH 514 0
DWIDTH 10 0
BBX 8 14 1 0
BITMAP
0C
0C
00
1E
7F
61
C0
C0
C0
C0
C0
61
7F
1E
ENDCHAR
STARTCHAR 010C
ENCODING 268
SWIDTH 668 0
DWIDTH 13 0
BBX 11 19 1 0
BITMAP
1980
0900
0F00
0600
0000
0FC0
3FE0
7020
6000
C000
C000
C000
C000
C000
C000
6000
7020
3FE0
0F80
ENDCHAR
STARTCHAR 010D
ENCODING 269
SWIDTH 514 0
DWIDTH 10 0
BBX 8 16 1 0
BITMAP
66
24
3C
18
00
1E
7F
61
C0
C0
C0
C0
C0
61
7F
1E
ENDCHAR
STARTCHAR 010E
ENCODING 270
SWIDTH 771 0
DWIDTH 15 0
BBX 12 19 2 0
BITMAP
3300
1200
1E00
0C00
0000
FF00
FF80
C1E0
C060
C070
C030
C030
C030
C030
C070
C060
C1C0
FF80
FF00
ENDCHAR
STARTCHAR 010F
ENCODING 271
SWIDTH 617 0
DWIDTH 12 0
BBX 14 15 1 0
BITMAP
019C
0198
0198
01B0
3FB0
7F80
6180
C180
C180
C180
C180
C180
E380
7F80
3D80
ENDCHAR
STARTCHAR 0110
ENCODING 272
SWIDTH 771 0
DWIDTH 15 0
BBX 14 14 0 0
BITMAP
3FC0
3FE0
3078
3018
301C
300C
FE0C
FE0C
300C
301C
3018
3070
3FE0
3FC0
ENDCHAR
STARTCHAR 0111
ENCODING 273
SWIDTH 617 0
DWIDTH 12 0
BBX 11 15 1 0
BITMAP
0180
0FE0
0180
0180
3F80
7F80
6180
C180
C180
C180
C180
C180
E380
7F80
3D80
ENDCHAR
STARTCHAR 0112
ENCODING 274
SWIDTH 617 0
DWIDTH 12 0
BBX 9 16 2 0
BITMAP
7F00
0000
FF80
FF80
C000
C000
C000
FF80
FF80
C000
C000
C000
C000
C000
FF80
FF80
ENDCHAR
STARTCHAR 0113
ENCODING 275
SWIDTH 565 0
DWIDTH 11 0
BBX 9 13 1 0
BITMAP
7F00
0000
1E00
7F00
6380
C180
FF80
FF80
C000
C000
6080
7F80
1F00
ENDCHAR
STARTCHAR 0114
ENCODING 276
SWIDTH 617 0
DWIDTH 12 0
BBX 9 19 2 0
BITMAP
6300
6300
3600
1C00
0000
FF80
FF80
C000
C000
C000
FF80
FF80
C000
C000
C000
C000
C000
FF80
FF80
ENDCHAR
STARTCHAR 0115
ENCODING 277
SWIDTH 565 0
DWIDTH 11 0
BBX 9 16 1 0
BITMAP
3180
3180
1B00
0E00
0000
1E00
7F00
6380
C180
FF80
FF80
C000
C000
6080
7F80
1F00
ENDCHAR
STARTCHAR 0116
ENCODING 278
SWIDTH 617 0
DWIDTH 12 0
BBX 9 17 2 0
BITMAP
0C00
0C00
0000
FF80
FF80
C000
C000
C000
FF80
FF80
C000
C000
C000
C000
C000
FF80
FF80
ENDCHAR
STARTCHAR 0117
ENCODING 279
SWIDTH 565 0
DWIDTH 11 0
BBX 9 14 1 0
BITMAP
0C00
0C00
0000
1E00
7F00
6380
C180
FF80
FF80
C000
C000
6080
7F80
1F00
ENDCHAR
STARTCHAR 0118
ENCODING 280
SWIDTH 617 0
DWIDTH 12 0
BBX 9 18 2 -4
BITMAP
FF80
FF80
C000
C000
C000
FF80
FF80
C000
C000
C000
C000
C000
FF80
FF80
0600
0600
0600
0380
ENDCHAR
STARTCHAR 0119
ENCODING 281
SWIDTH 565 0
DWIDTH 11 0
BBX 9 15 1 -4
BITMAP
1E00
7F00
6380
C180
FF80
FF80
C000
C000
6080
7F80
1F00
0600
0600
0600
0380
ENDCHAR
STARTCHAR 011A
ENCODING 282
SWIDTH 617 0
DWIDTH 12 0
BBX 9 19 2 0
BITMAP
3300
1200
1E00
0C00
0000
FF80
FF80
C000
C000
C000
FF80
FF80
C000
C000
C000
C000
C000
FF80
FF80
ENDCHAR
STARTCHAR 011B
ENCODING 283
SWIDTH 565 0
DWIDTH 11 0
BBX 9 16 1 0
BITMAP
3300
1200
1E00
0C00
0000
1E00
7F00
6380
C180
FF80
FF80
C000
C000
6080
7F80
1F00
ENDCHAR
STARTCHAR 011C
ENCODING 284
SWIDTH 771 0
DWIDTH 15 0
BBX 13 19 1 0
BITMAP
0300
0780
0480
0CC0
0000
0FE0
3FF8
7818
6000
E000
C000
C000
C1F8
C1F8
E018
6018
7818
3FF8
0FE0
ENDCHAR
STARTCHAR 011D
ENCODING 285
SWIDTH 617 0
DWIDTH 12 0
BBX 9 20 1 -4
BITMAP
0C00
1E00
1200
3300
0000
3F80
7F80
6180
C180
C180
C180
C180
C180
E380
7F80
3D80
0180
0380
7F00
7E00
ENDCHAR
STARTCHAR 011E
ENCODING 286
SWIDTH 771 0
DWIDTH 15 0
BBX 13 19 1 0
BITMAP
0C60
0C60
06C0
0380
0000
0FE0
3FF8
7818
6000
E000
C000
C000
C1F8
C1F8
E018
6018
7818
3FF8
0FE0
ENDCHAR
STARTCHAR 011F
ENCODING 287
SWIDTH 617 0
DWIDTH 12 0
BBX 9 20 1 -4
BITMAP
3180
3180
1B00
0E00
0000
3F80
7F80
6180
C180
C180
C180
C180
C180
E380
7F80
3D80
0180
0380
7F00
7E00
ENDCHAR
STARTCHAR 0120
ENCODING 288
SWIDTH 771 0
DWIDTH 15 0
BBX 13 17 1 0
BITMAP
0300
0300
0000
0FE0
3FF8
7818
6000
E000
C000
C000
C1F8
C1F8
E018
6018
7818
3FF8
0FE0
ENDCHAR
STARTCHAR 0121
ENCODING 289
SWIDTH 617 0
DWIDTH 12 0
BBX 9 18 1 -4
BITMAP
0C00
0C00
0000
3F80
7F80
6180
C180
C180
C180
C180
C180
E380
7F80
3D80
0180
0380
7F00
7E00
ENDCHAR
STARTCHAR 0122
ENCODING 290
SWIDTH 771 0
DWIDTH 15 0
BBX 13 18 1 -4
BITMAP
0FE0
3FF8
7818
6000
E000
C000
C000
C1F8
C1F8
E018
6018
7818
3FF8
0FE0
0180
0180
0180
0F00
ENDCHAR
STARTCHAR 0123
ENCODING 291
SWIDTH 617 0
DWIDTH 12 0
BBX 9 19 1 -4
BITMAP
0600
0C00
1C00
0000
3F80
7F80
6180
C180
C180
C180
C180
C180
E380
7F80
3D80
0180
0380
7F00
7E00
ENDCHAR
STARTCHAR 0124
ENCODING 292
SWIDTH 720 0
DWIDTH 14 0
BBX 10 19 2 0
BITMAP
0C00
1E00
1200
3300
0000
C0C0
C0C0
C0C0
C0C0
C0C0
FFC0
FFC0
C0C0
C0C0
C0C0
C0C0
C0C0
C0C0
C0C0
ENDCHAR
STARTCHAR 0125
ENCODING 293
SWIDTH 617 0
DWIDTH 12 0
BBX 8 19 2 0
BITMAP
0C
1E
12
33
C0
C0
C0
C0
DE
FF
E3
C3
C3
C3
C3
C3
C3
C3
C3
ENDCHAR
STARTCHAR 0126
ENCODING 294
SWIDTH 720 0
DWIDTH 14 0
BBX 14 14 0 0
BITMAP
3030
3030
FFFC
3030
3030
3FF0
3FF0
3030
3030
3030
3030
3030
3030
3030
ENDCHAR
STARTCHAR 0127
ENCODING 295
SWIDTH 617 0
DWIDTH 12 0
BBX 10 15 0 0
BITMAP
3000
3000
FE00
3000
3780
3FC0
38C0
30C0
30C0
30C0
30C0
30C0
30C0
30C0
30C0
ENDCHAR
STARTCHAR 0128
ENCODING 296
SWIDTH 411 0
DWIDTH 8 0
BBX 8 19 0 0
BITMAP
71
99
8E
00
00
7E
7E
18
18
18
18
18
18
18
18
18
18
7E
7E
ENDCHAR
STARTCHAR 0129
ENCODING 297
SWIDTH 308 0
DWIDTH 6 0
BBX 6 15 0 0
BITMAP
64
98
00
00
30
30
30
30
30
30
30
30
30
30
30
ENDCHAR
STARTCHAR 012A
ENCODING 298
SWIDTH 411 0
DWIDTH 8 0
BBX 6 18 1 0
BITMAP
FC
FC
00
00
FC
FC
30
30
30
30
30
30
30
30
30
30
FC
FC
ENDCHAR
STARTCHAR 012B
ENCODING 299
SWIDTH 308 0
DWIDTH 6 0
BBX 6 14 0 0
BITMAP
FC
00
00
30
30
30
30
30
30
30
30
30
30
30
ENDCHAR
STARTCHAR 012C
ENCODING 300
SWIDTH 411 0
DWIDTH 8 0
BBX 6 18 1 0
BITMAP
CC
CC
78
00
FC
FC
30
30
30
30
30
30
30
30
30
30
FC
FC
ENDCHAR
STARTCHAR 012D
ENCODING 301
SWIDTH 308 0
DWIDTH 6 0
BBX 6 16 0 0
BITMAP
CC
CC
78
00
00
30
30
30
30
30
30
30
30
30
30
30
ENDCHAR
STARTCHAR 012E
ENCODING 302
SWIDTH 411 0
DWIDTH 8 0
BBX 6 18 1 -4
BITMAP
FC
FC
30
30
30
30
30
30
30
30
30
30
FC
FC
30
30
30
1C
ENDCHAR
STARTCHAR 012F
ENCODING 303
SWIDTH 308 0
DWIDTH 6 0
BBX 4 18 1 -4
BITMAP
60
60
00
60
60
60
60
60
60
60
60
60
60
60
C0
C0
C0
70
ENDCHAR
STARTCHAR 0130
ENCODING 304
SWIDTH 411 0
DWIDTH 8 0
BBX 6 17 1 0
BITMAP
30
30
00
FC
FC
30
30
30
30
30
30
30
30
30
30
FC
FC
ENDCHAR
STARTCHAR 0131
ENCODING 305
SWIDTH 308 0
DWIDTH 6 0
BBX 2 11 2 0
BITMAP
C0
C0
C0
C0
C0
C0
C0
C0
C0
C0
C0
ENDCHAR
STARTCHAR 0132
ENCODING 306
SWIDTH 874 0
DWIDTH 17 0
BBX 14 14 1 0
BITMAP
FC7C
FC7C
300C
300C
300C
300C
300C
300C
300C
300C
300C
301C
FDF8
FDF0
ENDCHAR
STARTCHAR 0133
ENCODING 307
SWIDTH 617 0
DWIDTH 12 0
BBX 8 18 2 -4
BITMAP
C3
C3
00
CF
CF
C3
C3
C3
C3
C3
C3
C3
C3
C3
03
03
1F
1E
ENDCHAR
STARTCHAR 0134
ENCODING 308
SWIDTH 462 0
DWIDTH 9 0
BBX 8 19 0 0
BITMAP
0C
1E
12
33
00
3E
3E
06
06
06
06
06
06
06
06
06
0E
FC
F8
ENDCHAR
STARTCHAR 0135
ENCODING 309
SWIDTH 360 0
DWIDTH 7 0
BBX 7 21 0 -4
BITMAP
38
6C
6C
C6
00
00
78
78
18
18
18
18
18
18
18
18
18
18
18
F8
F0
ENDCHAR
STARTCHAR 0136
ENCODING 310
SWIDTH 668 0
DWIDTH 13 0
BBX 11 18 2 -4
BITMAP
C0E0
C1C0
C380
C700
CE00
DC00
F800
FC00
EC00
C600
C300
C380
C1C0
C0E0
0600
0600
0600
3C00
ENDCHAR
STARTCHAR 0137
ENCODING 311
SWIDTH 565 0
DWIDTH 11 0
BBX 9 19 2 -4
BITMAP
C000
C000
C000
C000
C380
C300
C600
CC00
D800
F800
F800
CC00
C600
C700
C380
0C00
0C00
0C00
7800
ENDCHAR
STARTCHAR 0138
ENCODING 312
SWIDTH 565 0
DWIDTH 11 0
BBX 9 11 2 0
BITMAP
C380
C300
C600
CC00
D800
F800
F800
CC00
C600
C700
C380
ENDCHAR
STARTCHAR 0139
ENCODING 313
SWIDTH 565 0
DWIDTH 11 0
BBX 9 18 2 0
BITMAP
3800
3000
6000
0000
C000
C000
C000
C000
C000
C000
C000
C000
C000
C000
C000
C000
FF80
FF80
ENDCHAR
STARTCHAR 013A
ENCODING 314
SWIDTH 308 0
DWIDTH 6 0
BBX 5 18 2 0
BITMAP
38
30
60
C0
C0
C0
C0
C0
C0
C0
C0
C0
C0
C0
C0
C0
C0
C0
ENDCHAR
STARTCHAR 013B
ENCODING 315
SWIDTH 565 0
DWIDTH 11 0
BBX 9 18 2 -4
BITMAP
C000
C000
C000
C000
C000
C000
C000
C000
C000
C000
C000
C000
FF80
FF80
0C00
0C00
0C00
7800
ENDCHAR
STARTCHAR 013C
ENCODING 316
SWIDTH 308 0
DWIDTH 6 0
BBX 4 19 2 -4
BITMAP
C0
C0
C0
C0
C0
C0
C0
C0
C0
C0
C0
C0
C0
C0
C0
30
30
30
E0
ENDCHAR
STARTCHAR 013D
ENCODING 317
SWIDTH 565 0
DWIDTH 11 0
BBX 9 15 2 0
BITMAP
0E00
CC00
CC00
D800
D800
C000
C000
C000
C000
C000
C000
C000
C000
FF80
FF80
ENDCHAR
STARTCHAR 013E
ENCODING 318
SWIDTH 308 0
DWIDTH 6 0
BBX 7 15 2 0
BITMAP
CE
CC
CC
D8
D8
C0
C0
C0
C0
C0
C0
C0
C0
C0
C0
ENDCHAR
STARTCHAR 013F
ENCODING 319
SWIDTH 565 0
DWIDTH 11 0
BBX 9 14 2 0
BITMAP
C000
C000
C000
C000
C000
C000
C000
C600
C600
C600
C000
C000
FF80
FF80
ENDCHAR
STARTCHAR 0140
ENCODING 320
SWIDTH 462 0
DWIDTH 9 0
BBX 6 15 2 0
BITMAP
C0
C0
C0
C0
C0
C0
C0
CC
CC
CC
C0
C0
C0
C0
C0
ENDCHAR
STARTCHAR 0141
ENCODING 321
SWIDTH 565 0
DWIDTH 11 0
BBX 11 14 0 0
BITMAP
3000
3000
3000
3200
3600
3C00
3800
7000
F000
B000
3000
3000
3FE0
3FE0
ENDCHAR
STARTCHAR 0142
ENCODING 322
SWIDTH 308 0
DWIDTH 6 0
BBX 6 15 0 0
BITMAP
30
30
30
30
30
34
3C
30
F0
B0
30
30
30
30
30
ENDCHAR
STARTCHAR 0143
ENCODING 323
SWIDTH 720 0
DWIDTH 14 0
BBX 10 18 2 0
BITMAP
0380
0300
0600
0000
E0C0
F0C0
F0C0
D0C0
D8C0
C8C0
CCC0
C4C0
C6C0
C2C0
C3C0
C3C0
C1C0
C1C0
ENDCHAR
STARTCHAR 0144
ENCODING 324
SWIDTH 617 0
DWIDTH 12 0
BBX 8 15 2 0
BITMAP
07
06
0C
00
DE
FF
E3
C3
C3
C3
C3
C3
C3
C3
C3
ENDCHAR
STARTCHAR 0145
ENCODING 325
SWIDTH 720 0
DWIDTH 14 0
BBX 10 18 2 -4
BITMAP
E0C0
F0C0
F0C0
D0C0
D8C0
C8C0
CCC0
C4C0
C6C0
C2C0
C3C0
C3C0
C1C0
C1C0
0600
0600
0600
3C00
ENDCHAR
STARTCHAR 0146
ENCODING 326
SWIDTH 617 0
DWIDTH 12 0
BBX 8 15 2 -4
BITMAP
DE
FF
E3
C3
C3
C3
C3
C3
C3
C3
C3
0C
0C
0C
78
ENDCHAR
STARTCHAR 0147
ENCODING 327
SWIDTH 720 0
DWIDTH 14 0
BBX 10 19 2 0
BITMAP
3300
1200
1E00
0C00
0000
E0C0
F0C0
F0C0
D0C0
D8C0
C8C0
CCC0
C4C0
C6C0
C2C0
C3C0
C3C0
C1C0
C1C0
ENDCHAR
STARTCHAR 0148
ENCODING 328
SWIDTH 617 0
DWIDTH 12 0
BBX 8 16 2 0
BITMAP
CC
48
78
30
00
DE
FF
E3
C3
C3
C3
C3
C3
C3
C3
C3
ENDCHAR
STARTCHAR 0149
ENCODING 329
SWIDTH 720 0
DWIDTH 14 0
BBX 12 15 0 0
BITMAP
7000
6000
6000
C000
CDE0
0FF0
0E30
0C30
0C30
0C30
0C30
0C30
0C30
0C30
0C30
ENDCHAR
STARTCHAR 014A
ENCODING 330
SWIDTH 720 0
DWIDTH 14 0
BBX 10 18 2 -4
BITMAP
E0C0
F0C0
F0C0
D8C0
D8C0
CCC0
CCC0
C6C0
C6C0
C3C0
C3C0
C1C0
C1C0
C0C0
00C0
00C0
0180
0700
ENDCHAR
STARTCHAR 014B
ENCODING 331
SWIDTH 617 0
DWIDTH 12 0
BBX 8 15 2 -4
BITMAP
DE
FF
E3
C3
C3
C3
C3
C3
C3
C3
C3
03
03
02
1C
ENDCHAR
STARTCHAR 014C
ENCODING 332
SWIDTH 771 0
DWIDTH 15 0
BBX 13 16 1 0
BITMAP
1FC0
0000
0F80
3FE0
7070
6030
C018
C018
C018
C018
C018
C018
6030
7070
3FE0
0F80
ENDCHAR
STARTCHAR 014D
ENCODING 333
SWIDTH 617 0
DWIDTH 12 0
BBX 10 13 1 0
BITMAP
3F80
0000
1E00
7F80
6180
C0C0
C0C0
C0C0
C0C0
C0C0
6180
7F80
1E00
ENDCHAR
STARTCHAR 014E
ENCODING 334
SWIDTH 771 0
DWIDTH 15 0
BBX 13 19 1 0
BITMAP
18C0
18C0
0D80
0700
0000
0F80
3FE0
7070
6030
C018
C018
C018
C018
C018
C018
6030
7070
3FE0
0F80
ENDCHAR
STARTCHAR 014F
ENCODING 335
SWIDTH 617 0
DWIDTH 12 0
BBX 10 16 1 0
BITMAP
3180
3180
1B00
0E00
0000
1E00
7F80
6180
C0C0
C0C0
C0C0
C0C0
C0C0
6180
7F80
1E00
ENDCHAR
STARTCHAR 0150
ENCODING 336
SWIDTH 771 0
DWIDTH 15 0
BBX 13 18 1 0
BITMAP
0770
0660
0CC0
0000
0F80
3FE0
7070
6030
C018
C018
C018
C018
C018
C018
6030
7070
3FE0
0F80
ENDCHAR
STARTCHAR 0151
ENCODING 337
SWIDTH 617 0
DWIDTH 12 0
BBX 11 15 1 0
BITMAP
0EE0
0CC0
1980
0000
1E00
7F80
6180
C0C0
C0C0
C0C0
C0C0
C0C0
6180
7F80
1E00
ENDCHAR
STARTCHAR 0152
ENCODING 338
SWIDTH 1028 0
DWIDTH 20 0
BBX 18 14 1 0
BITMAP
0FFFC0
3FFFC0
786000
606000
E06000
C07FC0
C07FC0
C06000
C06000
C06000
606000
786000
3FFFC0
0FFFC0
ENDCHAR
STARTCHAR 0153
ENCODING 339
SWIDTH 977 0
DWIDTH 19 0
BBX 17 11 1 0
BITMAP
1E1E00
7FBF00
61E380
C0C180
C0FF80
C0FF80
C0C000
C0C000
61E080
7FBF80
1E1F00
ENDCHAR
STARTCHAR 0154
ENCODING 340
SWIDTH 668 0
DWIDTH 13 0
BBX 11 18 2 0
BITMAP
0700
0600
0C00
0000
FE00
FF00
C380
C180
C180
C380
FF00
FC00
C600
C700
C300
C180
C0C0
C0E0
ENDCHAR
STARTCHAR 0155
ENCODING 341
SWIDTH 411 0
DWIDTH 8 0
BBX 6 15 2 0
BITMAP
38
30
60
00
DC
FC
E0
C0
C0
C0
C0
C0
C0
C0
C0
ENDCHAR
STARTCHAR 0156
ENCODING 342
SWIDTH 668 0
DWIDTH 13 0
BBX 11 18 2 -4
BITMAP
FE00
FF00
C380
C180
C180
C380
FF00
FC00
C600
C700
C300
C180
C0C0
C0E0
0600
0600
0600
3C00
ENDCHAR
STARTCHAR 0157
ENCODING 343
SWIDTH 411 0
DWIDTH 8 0
BBX 6 15 2 -4
BITMAP
DC
FC
E0
C0
C0
C0
C0
C0
C0
C0
C0
30
30
30
E0
ENDCHAR
STARTCHAR 0158
ENCODING 344
SWIDTH 668 0
DWIDTH 13 0
BBX 11 19 2 0
BITMAP
6600
2400
3C00
1800
0000
FE00
FF00
C380
C180
C180
C380
FF00
FC00
C600
C700
C300
C180
C0C0
C0E0
ENDCHAR
STARTCHAR 0159
ENCODING 345
SWIDTH 411 0
DWIDTH 8 0
BBX 6 16 2 0
BITMAP
CC
48
78
30
00
DC
FC
E0
C0
C0
C0
C0
C0
C0
C0
C0
ENDCHAR
STARTCHAR 015A
ENCODING 346
SWIDTH 668 0
DWIDTH 13 0
BBX 11 18 1 0
BITMAP
0700
0600
0C00
0000
3F80
7FC0
E040
C000
C000
E000
7F00
1FC0
00E0
0060
0060
C0E0
FFC0
7F00
ENDCHAR
STARTCHAR 015B
ENCODING 347
SWIDTH 514 0
DWIDTH 10 0
BBX 8 15 1 0
BITMAP
0E
0C
18
00
3E
7F
C1
C0
F0
7E
0F
03
83
FE
7C
ENDCHAR
STARTCHAR 015C
ENCODING 348
SWIDTH 668 0
DWIDTH 13 0
BBX 11 19 1 0
BITMAP
0600
0F00
0900
1980
0000
3F80
7FC0
E040
C000
C000
E000
7F00
1FC0
00E0
0060
0060
C0E0
FFC0
7F00
ENDCHAR
STARTCHAR 015D
ENCODING 349
SWIDTH 514 0
DWIDTH 10 0
BBX 8 16 1 0
BITMAP
0C
1E
12
33
00
3E
7F
C1
C0
F0
7E
0F
03
83
FE
7C
ENDCHAR
STARTCHAR 015E
ENCODING 350
SWIDTH 668 0
DWIDTH 13 0
BBX 11 18 1 -4
BITMAP
3F80
7FC0
E040
C000
C000
E000
7F00
1FC0
00E0
0060
0060
C0E0
FFC0
7F80
0300
0300
0300
1E00
ENDCHAR
STARTCHAR 015F
ENCODING 351
SWIDTH 514 0
DWIDTH 10 0
BBX 8 15 1 -4
BITMAP
3E
7F
C1
C0
F0
7E
0F
03
83
FE
7C
0C
0C
0C
78
ENDCHAR
STARTCHAR 0160
ENCODING 352
SWIDTH 668 0
DWIDTH 13 0
BBX 11 19 1 0
BITMAP
1980
0900
0F00
0600
0000
3F80
7FC0
E040
C000
C000
E000
7F00
1FC0
00E0
0060
0060
C0E0
FFC0
7F00
ENDCHAR
STARTCHAR 0161
ENCODING 353
SWIDTH 514 0
DWIDTH 10 0
BBX 8 16 1 0
BITMAP
66
24
3C
18
00
3E
7F
C1
C0
F0
7E
0F
03
83
FE
7C
ENDCHAR
STARTCHAR 0162
ENCODING 354
SWIDTH 617 0
DWIDTH 12 0
BBX 12 18 0 -4
BITMAP
FFF0
FFF0
0600
0600
0600
0600
0600
0600
0600
0600
0600
0600
0600
0600
0600
0600
0600
3C00
ENDCHAR
STARTCHAR 0163
ENCODING 355
SWIDTH 360 0
DWIDTH 7 0
BBX 6 18 1 -4
BITMAP
60
60
60
FC
FC
60
60
60
60
60
60
60
7C
3C
0C
0C
0C
78
ENDCHAR
STARTCHAR 0164
ENCODING 356
SWIDTH 617 0
DWIDTH 12 0
BBX 12 19 0 0
BITMAP
1980
0900
0F00
0600
0000
FFF0
FFF0
0600
0600
0600
0600
0600
0600
0600
0600
0600
0600
0600
0600
ENDCHAR
STARTCHAR 0165
ENCODING 357
SWIDTH 360 0
DWIDTH 7 0
BBX 7 18 1 0
BITMAP
06
04
04
0C
68
60
60
FC
FC
60
60
60
60
60
60
60
7C
3C
ENDCHAR
STARTCHAR 0166
ENCODING 358
SWIDTH 617 0
DWIDTH 12 0
BBX 12 14 0 0
BITMAP
FFF0
FFF0
0600
0600
0600
0600
3FC0
3FC0
0600
0600
0600
0600
0600
0600
ENDCHAR
STARTCHAR 0167
ENCODING 359
SWIDTH 360 0
DWIDTH 7 0
BBX 6 14 1 0
BITMAP
60
60
60
FC
FC
60
60
F8
60
60
60
60
7C
3C
ENDCHAR
STARTCHAR 0168
ENCODING 360
SWIDTH 720 0
DWIDTH 14 0
BBX 10 18 2 0
BITMAP
3880
4C80
4700
0000
C0C0
C0C0
C0C0
C0C0
C0C0
C0C0
C0C0
C0C0
C0C0
C0C0
C0C0
6180
7F80
1F00
ENDCHAR
STARTCHAR 0169
ENCODING 361
SWIDTH 617 0
DWIDTH 12 0
BBX 8 15 2 0
BITMAP
71
99
8E
00
C3
C3
C3
C3
C3
C3
C3
C3
C7
FF
7B
ENDCHAR
STARTCHAR 016A
ENCODING 362
SWIDTH 720 0
DWIDTH 14 0
BBX 10 16 2 0
BITMAP
3F80
0000
C0C0
C0C0
C0C0
C0C0
C0C0
C0C0
C0C0
C0C0
C0C0
C0C0
C0C0
6180
7F80
1F00
ENDCHAR
STARTCHAR 016B
ENCODING 363
SWIDTH 617 0
DWIDTH 12 0
BBX 8 13 2 0
BITMAP
7F
00
C3
C3
C3
C3
C3
C3
C3
C3
C7
FF
7B
ENDCHAR
STARTCHAR 016C
ENCODING 364
SWIDTH 720 0
DWIDTH 14 0
BBX 10 19 2 0
BITMAP
3180
3180
1B00
0E00
0000
C0C0
C0C0
C0C0
C0C0
C0C0
C0C0
C0C0
C0C0
C0C0
C0C0
C0C0
6180
7F80
1F00
ENDCHAR
STARTCHAR 016D
ENCODING 365
SWIDTH 617 0
DWIDTH 12 0
BBX 8 16 2 0
BITMAP
63
63
36
1C
00
C3
C3
C3
C3
C3
C3
C3
C3
C7
FF
7B
ENDCHAR
STARTCHAR 016E
ENCODING 366
SWIDTH 720 0
DWIDTH 14 0
BBX 10 19 2 0
BITMAP
1E00
3300
3300
3300
3300
DEC0
C0C0
C0C0
C0C0
C0C0
C0C0
C0C0
C0C0
C0C0
C0C0
C0C0
6180
7F80
1F00
ENDCHAR
STARTCHAR 016F
ENCODING 367
SWIDTH 617 0
DWIDTH 12 0
BBX 8 18 2 0
BITMAP
3C
66
66
66
66
3C
00
C3
C3
C3
C3
C3
C3
C3
C3
C7
FF
7B
ENDCHAR
STARTCHAR 0170
ENCODING 368
SWIDTH 720 0
DWIDTH 14 0
BBX 11 18 2 0
BITMAP
0EE0
0CC0
1980
0000
C0C0
C0C0
C0C0
C0C0
C0C0
C0C0
C0C0
C0C0
C0C0
C0C0
C0C0
6180
7F80
1F00
ENDCHAR
STARTCHAR 0171
ENCODING 369
SWIDTH 617 0
DWIDTH 12 0
BBX 10 15 2 0
BITMAP
1DC0
1980
3300
0000
C300
C300
C300
C300
C300
C300
C300
C300
C700
FF00
7B00
ENDCHAR
STARTCHAR 0172
ENCODING 370
SWIDTH 720 0
DWIDTH 14 0
BBX 10 18 2 -4
BITMAP
C0C0
C0C0
C0C0
C0C0
C0C0
C0C0
C0C0
C0C0
C0C0
C0C0
C0C0
6180
7F80
1F00
0600
0600
0600
0380
ENDCHAR
STARTCHAR 0173
ENCODING 371
SWIDTH 617 0
DWIDTH 12 0
BBX 10 15 2 -4
BITMAP
C300
C300
C300
C300
C300
C300
C300
C300
C700
FF00
7B00
0300
0300
0300
01C0
ENDCHAR
STARTCHAR 0174
ENCODING 372
SWIDTH 977 0
DWIDTH 19 0
BBX 17 19 1 0
BITMAP
00C000
01E000
012000
033000
000000
C1C180
C1C180
614300
614300
616300
636300
322600
322600
323600
363600
141400
1C1C00
1C1C00
0C1C00
ENDCHAR
STARTCHAR 0175
ENCODING 373
SWIDTH 822 0
DWIDTH 16 0
BBX 14 16 1 0
BITMAP
0300
0780
0480
0CC0
0000
C30C
C30C
6398
6798
6498
6498
2CD0
3850
3870
3870
1820
ENDCHAR
STARTCHAR 0176
ENCODING 374
SWIDTH 617 0
DWIDTH 12 0
BBX 12 19 0 0
BITMAP
0600
0F00
0900
1980
0000
E070
6060
30C0
30C0
1980
1F80
0F00
0600
0600
0600
0600
0600
0600
0600
ENDCHAR
STARTCHAR 0177
ENCODING 375
SWIDTH 565 0
DWIDTH 11 0
BBX 9 20 1 -4
BITMAP
0C00
1E00
1200
3300
0000
C180
6300
6300
6300
3600
3600
3600
1400
1C00
1C00
0800
1800
1800
3000
3000
ENDCHAR
STARTCHAR 0178
ENCODING 376
SWIDTH 617 0
DWIDTH 12 0
BBX 12 17 0 0
BITMAP
1980
1980
0000
E070
6060
30C0
30C0
1980
1F80
0F00
0600
0600
0600
0600
0600
0600
0600
ENDCHAR
STARTCHAR 0179
ENCODING 377
SWIDTH 668 0
DWIDTH 13 0
BBX 11 18 1 0
BITMAP
0700
0600
0C00
0000
FFE0
FFE0
00E0
01C0
0380
0700
0600
0C00
1C00
3800
7000
E000
FFE0
FFE0
ENDCHAR
STARTCHAR 017A
ENCODING 378
SWIDTH 514 0
DWIDTH 10 0
BBX 8 15 1 0
BITMAP
0E
0C
18
00
FF
FF
07
06
0C
18
30
60
E0
FF
FF
ENDCHAR
STARTCHAR 017B
ENCODING 379
SWIDTH 668 0
DWIDTH 13 0
BBX 11 17 1 0
BITMAP
0600
0600
0000
FFE0
FFE0
00E0
01C0
0380
0700
0600
0C00
1C00
3800
7000
E000
FFE0
FFE0
ENDCHAR
STARTCHAR 017C
ENCODING 380
SWIDTH 514 0
DWIDTH 10 0
BBX 8 14 1 0
BITMAP
18
18
00
FF
FF
07
06
0C
18
30
60
E0
FF
FF
ENDCHAR
STARTCHAR 017D
ENCODING 381
SWIDTH 668 0
DWIDTH 13 0
BBX 11 19 1 0
BITMAP
1980
0900
0F00
0600
0000
FFE0
FFE0
00E0
01C0
0380
0700
0600
0C00
1C00
3800
7000
E000
FFE0
FFE0
ENDCHAR
STARTCHAR 017E
ENCODING 382
SWIDTH 514 0
DWIDTH 10 0
BBX 8 16 1 0
BITMAP
66
24
3C
18
00
FF
FF
07
06
0C
18
30
60
E0
FF
FF
ENDCHAR
STARTCHAR 017F
ENCODING 383
SWIDTH 308 0
DWIDTH 6 0
BBX 5 15 2 0
BITMAP
78
78
C0
C0
C0
C0
C0
C0
C0
C0
C0
C0
C0
C0
C0
ENDCHAR
STARTCHAR 0192
ENCODING 402
SWIDTH 617 0
DWIDTH 12 0
BBX 12 16 0 -2
BITMAP
00F0
01F0
0380
0300
0300
0300
1FC0
1FC0
0600
0600
0600
0C00
0C00
1C00
F800
F000
ENDCHAR
STARTCHAR 01A0
ENCODING 416
SWIDTH 771 0
DWIDTH 15 0
BBX 15 14 1 0
BITMAP
0F86
3FE6
7076
603C
C018
C018
C018
C018
C018
C018
6030
7070
3FE0
0F80
ENDCHAR
STARTCHAR 01A1
ENCODING 417
SWIDTH 617 0
DWIDTH 12 0
BBX 11 14 1 0
BITMAP
0060
0060
0060
1FC0
7F80
6180
C0C0
C0C0
C0C0
C0C0
C0C0
6180
7F80
1E00
ENDCHAR
STARTCHAR 01AF
ENCODING 431
SWIDTH 720 0
DWIDTH 14 0
BBX 13 17 2 0
BITMAP
0018
0018
0018
C0F0
C0C0
C0C0
C0C0
C0C0
C0C0
C0C0
C0C0
C0C0
C0C0
C0C0
6180
7F80
1F00
ENDCHAR
STARTCHAR 01B0
ENCODING 432
SWIDTH 617 0
DWIDTH 12 0
BBX 11 14 2 0
BITMAP
0060
0060
0060
C3C0
C300
C300
C300
C300
C300
C300
C300
C700
FF00
7B00
ENDCHAR
STARTCHAR 01FA
ENCODING 506
SWIDTH 668 0
DWIDTH 13 0
BBX 13 19 0 0
BITMAP
0300
0600
0700
0D80
0D80
0D80
0700
0780
0D80
0D80
18C0
18C0
18C0
3060
3FE0
7FF0
6030
6030
C018
ENDCHAR
STARTCHAR 01FB
ENCODING 507
SWIDTH 565 0
DWIDTH 11 0
BBX 8 18 1 0
BITMAP
0E
0C
18
3C
66
66
66
7E
7F
03
03
3F
7F
E3
C3
C7
FF
7B
ENDCHAR
STARTCHAR 01FC
ENCODING 508
SWIDTH 977 0
DWIDTH 19 0
BBX 18 18 0 0
BITMAP
001C00
001800
003000
000000
07FFC0
07FFC0
066000
0C6000
0C6000
1C7FC0
187FC0
1FE000
3FE000
306000
706000
606000
607FC0
C07FC0
ENDCHAR
STARTCHAR 01FD
ENCODING 509
SWIDTH 925 0
DWIDTH 18 0
BBX 16 15 1 0
BITMAP
0070
0060
00C0
0000
7E3C
7FFE
01C7
0183
3FFF
7FFF
E180
C180
C3C1
FEFF
3C3E
ENDCHAR
STARTCHAR 01FE
ENCODING 510
SWIDTH 771 0
DWIDTH 15 0
BBX 13 19 1 -1
BITMAP
01C0
0180
0300
0010
0F90
3FE0
7070
6070
C098
C118
C218
C618
C418
C818
7030
7070
3FE0
4F80
4000
ENDCHAR
STARTCHAR 01FF
ENCODING 511
SWIDTH 617 0
DWIDTH 12 0
BBX 10 16 1 -1
BITMAP
0700
0600
0C00
0040
1E80
7F80
6180
C2C0
C4C0
C8C0
C8C0
D0C0
6180
7F80
5E00
8000
ENDCHAR
STARTCHAR 02C6
ENCODING 710
SWIDTH 617 0
DWIDTH 12 0
BBX 6 4 3 12
BITMAP
30
78
48
CC
ENDCHAR
STARTCHAR 02C7
ENCODING 711
SWIDTH 617 0
DWIDTH 12 0
BBX 6 4 3 12
BITMAP
CC
48
78
30
ENDCHAR
STARTCHAR 02C9
ENCODING 713
SWIDTH 617 0
DWIDTH 12 0
BBX 7 1 3 12
BITMAP
FE
ENDCHAR
STARTCHAR 02D8
ENCODING 728
SWIDTH 617 0
DWIDTH 12 0
BBX 7 4 3 12
BITMAP
C6
C6
6C
38
ENDCHAR
STARTCHAR 02D9
ENCODING 729
SWIDTH 617 0
DWIDTH 12 0
BBX 2 2 5 12
BITMAP
C0
C0
ENDCHAR
STARTCHAR 02DA
ENCODING 730
SWIDTH 617 0
DWIDTH 12 0
BBX 6 6 3 12
BITMAP
78
CC
CC
CC
CC
78
ENDCHAR
STARTCHAR 02DB
ENCODING 731
SWIDTH 617 0
DWIDTH 12 0
BBX 4 4 4 -4
BITMAP
C0
C0
C0
70
ENDCHAR
STARTCHAR 02DC
ENCODING 732
SWIDTH 617 0
DWIDTH 12 0
BBX 8 3 2 12
BITMAP
71
99
8E
ENDCHAR
STARTCHAR 02DD
ENCODING 733
SWIDTH 617 0
DWIDTH 12 0
BBX 8 3 3 12
BITMAP
77
66
CC
ENDCHAR
STARTCHAR 0300
ENCODING 768
SWIDTH 0 0
DWIDTH 0 0
BBX 4 3 3 12
BITMAP
E0
60
30
ENDCHAR
STARTCHAR 0301
ENCODING 769
SWIDTH 0 0
DWIDTH 0 0
BBX 4 3 5 12
BITMAP
70
60
C0
ENDCHAR
STARTCHAR 0303
ENCODING 771
SWIDTH 0 0
DWIDTH 0 0
BBX 8 3 2 12
BITMAP
71
99
8E
ENDCHAR
STARTCHAR 0309
ENCODING 777
SWIDTH 0 0
DWIDTH 0 0
BBX 3 4 5 12
BITMAP
C0
20
20
60
ENDCHAR
STARTCHAR 0323
ENCODING 803
SWIDTH 0 0
DWIDTH 0 0
BBX 2 2 5 -4
BITMAP
C0
C0
ENDCHAR
STARTCHAR 037E
ENCODING 894
SWIDTH 462 0
DWIDTH 9 0
BBX 4 14 2 -3
BITMAP
60
60
60
00
00
00
00
00
70
60
60
40
C0
C0
ENDCHAR
STARTCHAR 0384
ENCODING 900
SWIDTH 617 0
DWIDTH 12 0
BBX 2 4 5 12
BITMAP
C0
C0
C0
C0
ENDCHAR
STARTCHAR 0385
ENCODING 901
SWIDTH 617 0
DWIDTH 12 0
BBX 8 4 2 12
BITMAP
18
18
DB
DB
ENDCHAR
STARTCHAR 0386
ENCODING 902
SWIDTH 668 0
DWIDTH 13 0
BBX 13 14 0 0
BITMAP
C700
C700
CD80
CD80
0D80
18C0
18C0
30E0
3FE0
3FE0
6030
6030
6030
C018
ENDCHAR
STARTCHAR 0387
ENCODING 903
SWIDTH 462 0
DWIDTH 9 0
BBX 2 3 3 8
BITMAP
C0
C0
C0
ENDCHAR
STARTCHAR 0388
ENCODING 904
SWIDTH 720 0
DWIDTH 14 0
BBX 13 14 0 0
BITMAP
CFF8
CFF8
CC00
CC00
0C00
0FF8
0FF8
0C00
0C00
0C00
0C00
0C00
0FF8
0FF8
ENDCHAR
STARTCHAR 0389
ENCODING 905
SWIDTH 874 0
DWIDTH 17 0
BBX 14 14 0 0
BITMAP
CC0C
CC0C
CC0C
CC0C
0C0C
0FFC
0FFC
0C0C
0C0C
0C0C
0C0C
0C0C
0C0C
0C0C
ENDCHAR
STARTCHAR 038A
ENCODING 906
SWIDTH 514 0
DWIDTH 10 0
BBX 9 14 0 0
BITMAP
DF80
DF80
C600
C600
0600
0600
0600
0600
0600
0600
0600
0600
1F80
1F80
ENDCHAR
STARTCHAR 038C
ENCODING 908
SWIDTH 874 0
DWIDTH 17 0
BBX 16 14 0 0
BITMAP
C1F0
C7FC
CE0E
CC06
1803
1803
1803
1803
1803
1803
0C06
0E0E
07FC
01F0
ENDCHAR
STARTCHAR 038E
ENCODING 910
SWIDTH 720 0
DWIDTH 14 0
BBX 15 14 0 0
BITMAP
DC0E
CC0C
C618
C618
0330
03F0
01E0
00C0
00C0
00C0
00C0
00C0
00C0
00C0
ENDCHAR
STARTCHAR 038F
ENCODING 911
SWIDTH 874 0
DWIDTH 17 0
BBX 16 14 0 0
BITMAP
C1F0
C7FC
CE0E
DC07
1803
1803
1803
1803
0C06
0E0E
071C
0318
1F1F
1F1F
ENDCHAR
STARTCHAR 0390
ENCODING 912
SWIDTH 308 0
DWIDTH 6 0
BBX 8 17 -1 0
BITMAP
18
18
DB
D3
00
00
18
18
18
18
18
18
18
18
18
18
18
ENDCHAR
STARTCHAR 0391
ENCODING 913
SWIDTH 668 0
DWIDTH 13 0
BBX 13 14 0 0
BITMAP
0700
0700
0D80
0D80
0D80
18C0
18C0
30E0
3FE0
3FE0
6030
6030
6030
C018
ENDCHAR
STARTCHAR 0392
ENCODING 914
SWIDTH 668 0
DWIDTH 13 0
BBX 10 14 2 0
BITMAP
FE00
FF80
C180
C180
C180
C300
FE00
FF80
C1C0
C0C0
C0C0
C1C0
FF80
FF00
ENDCHAR
STARTCHAR 0393
ENCODING 915
SWIDTH 565 0
DWIDTH 11 0
BBX 9 14 2 0
BITMAP
FF80
FF80
C000
C000
C000
C000
C000
C000
C000
C000
C000
C000
C000
C000
ENDCHAR
STARTCHAR 0394
ENCODING 916
SWIDTH 668 0
DWIDTH 13 0
BBX 13 14 0 0
BITMAP
0700
0700
0D80
0D80
0D80
18C0
18C0
38E0
3060
3060
6030
6030
7FF0
FFF8
ENDCHAR
STARTCHAR 0395
ENCODING 917
SWIDTH 617 0
DWIDTH 12 0
BBX 9 14 2 0
BITMAP
FF80
FF80
C000
C000
C000
FF80
FF80
C000
C000
C000
C000
C000
FF80
FF80
ENDCHAR
STARTCHAR 0396
ENCODING 918
SWIDTH 668 0
DWIDTH 13 0
BBX 11 14 1 0
BITMAP
FFE0
FFE0
00E0
01C0
0380
0700
0600
0C00
1C00
3800
7000
E000
FFE0
FFE0
ENDCHAR
STARTCHAR 0397
ENCODING 919
SWIDTH 720 0
DWIDTH 14 0
BBX 10 14 2 0
BITMAP
C0C0
C0C0
C0C0
C0C0
C0C0
FFC0
FFC0
C0C0
C0C0
C0C0
C0C0
C0C0
C0C0
C0C0
ENDCHAR
STARTCHAR 0398
ENCODING 920
SWIDTH 771 0
DWIDTH 15 0
BBX 13 14 1 0
BITMAP
0F80
3FE0
7070
6030
C018
C018
CF98
CF98
C018
C018
6030
7070
3FE0
0F80
ENDCHAR
STARTCHAR 0399
ENCODING 921
SWIDTH 411 0
DWIDTH 8 0
BBX 6 14 1 0
BITMAP
FC
FC
30
30
30
30
30
30
30
30
30
30
FC
FC
ENDCHAR
STARTCHAR 039A
ENCODING 922
SWIDTH 668 0
DWIDTH 13 0
BBX 11 14 2 0
BITMAP
C0E0
C1C0
C380
C700
CE00
DC00
F800
FC00
EC00
C600
C300
C380
C1C0
C0E0
ENDCHAR
STARTCHAR 039B
ENCODING 923
SWIDTH 668 0
DWIDTH 13 0
BBX 13 14 0 0
BITMAP
0700
0700
0D80
0D80
0D80
18C0
18C0
38E0
3060
3060
6030
6030
6030
C018
ENDCHAR
STARTCHAR 039C
ENCODING 924
SWIDTH 822 0
DWIDTH 16 0
BBX 12 14 2 0
BITMAP
E070
E070
F0F0
D0B0
D9B0
C930
CD30
CF30
C630
C630
C030
C030
C030
C030
ENDCHAR
STARTCHAR 039D
ENCODING 925
SWIDTH 720 0
DWIDTH 14 0
BBX 10 14 2 0
BITMAP
E0C0
F0C0
F0C0
D0C0
D8C0
C8C0
CCC0
C4C0
C6C0
C2C0
C3C0
C3C0
C1C0
C1C0
ENDCHAR
STARTCHAR 039E
ENCODING 926
SWIDTH 617 0
DWIDTH 12 0
BBX 10 14 1 0
BITMAP
FFC0
FFC0
0000
0000
0000
7F80
7F80
0000
0000
0000
0000
0000
FFC0
FFC0
ENDCHAR
STARTCHAR 039F
ENCODING 927
SWIDTH 771 0
DWIDTH 15 0
BBX 13 14 1 0
BITMAP
0F80
3FE0
7070
6030
C018
C018
C018
C018
C018
C018
6030
7070
3FE0
0F80
ENDCHAR
STARTCHAR 03A0
ENCODING 928
SWIDTH 720 0
DWIDTH 14 0
BBX 10 14 2 0
BITMAP
FFC0
FFC0
C0C0
C0C0
C0C0
C0C0
C0C0
C0C0
C0C0
C0C0
C0C0
C0C0
C0C0
C0C0
ENDCHAR
STARTCHAR 03A1
ENCODING 929
SWIDTH 565 0
DWIDTH 11 0
BBX 8 14 2 0
BITMAP
FC
FE
C7
C3
C3
C3
C7
FE
FC
C0
C0
C0
C0
C0
ENDCHAR
STARTCHAR 03A3
ENCODING 931
SWIDTH 668 0
DWIDTH 13 0
BBX 11 14 1 0
BITMAP
FFE0
FFE0
7000
3800
1C00
0E00
0700
0E00
1C00
3800
7000
E000
FFE0
FFE0
ENDCHAR
STARTCHAR 03A4
ENCODING 932
SWIDTH 617 0
DWIDTH 12 0
BBX 12 14 0 0
BITMAP
FFF0
FFF0
0600
0600
0600
0600
0600
0600
0600
0600
0600
0600
0600
0600
ENDCHAR
STARTCHAR 03A5
ENCODING 933
SWIDTH 617 0
DWIDTH 12 0
BBX 12 14 0 0
BITMAP
E070
6060
30C0
30C0
1980
1F80
0F00
0600
0600
0600
0600
0600
0600
0600
ENDCHAR
STARTCHAR 03A6
ENCODING 934
SWIDTH 822 0
DWIDTH 16 0
BBX 14 14 1 0
BITMAP
0300
1FE0
3FF0
7338
E31C
C30C
C30C
C30C
E31C
7338
3FF0
1FE0
0300
0300
ENDCHAR
STARTCHAR 03A7
ENCODING 935
SWIDTH 668 0
DWIDTH 13 0
BBX 11 14 1 0
BITMAP
E0E0
60C0
3180
3180
1B00
0A00
0E00
0E00
0B00
1B00
3180
3180
60C0
E0E0
ENDCHAR
STARTCHAR 03A8
ENCODING 936
SWIDTH 874 0
DWIDTH 17 0
BBX 14 14 1 0
BITMAP
C30C
C30C
C30C
C30C
C30C
C30C
C30C
E31C
7338
7FF8
1FE0
0300
0300
0300
ENDCHAR
STARTCHAR 03A9
ENCODING 937
SWIDTH 771 0
DWIDTH 15 0
BBX 13 14 1 0
BITMAP
0F80
3FE0
7070
E038
C018
C018
C018
C018
6030
7070
38E0
18C0
F8F8
F8F8
ENDCHAR
STARTCHAR 03AA
ENCODING 938
SWIDTH 411 0
DWIDTH 8 0
BBX 6 17 1 0
BITMAP
CC
CC
00
FC
FC
30
30
30
30
30
30
30
30
30
30
FC
FC
ENDCHAR
STARTCHAR 03AB
ENCODING 939
SWIDTH 617 0
DWIDTH 12 0
BBX 12 17 0 0
BITMAP
1980
1980
0000
E070
6060
30C0
30C0
1980
1F80
0F00
0600
0600
0600
0600
0600
0600
0600
ENDCHAR
STARTCHAR 03AC
ENCODING 940
SWIDTH 617 0
DWIDTH 12 0
BBX 9 16 1 0
BITMAP
0C00
0C00
0C00
0C00
0000
3D80
7F80
6180
C180
C180
C180
C180
C180
E380
7F80
3D80
ENDCHAR
STARTCHAR 03AD
ENCODING 941
SWIDTH 514 0
DWIDTH 10 0
BBX 8 16 1 0
BITMAP
0C
0C
0C
0C
00
3F
FF
C0
C0
7C
7C
C0
C0
E1
7F
3E
ENDCHAR
STARTCHAR 03AE
ENCODING 942
SWIDTH 617 0
DWIDTH 12 0
BBX 8 20 2 -4
BITMAP
18
18
18
18
00
DE
FF
E3
C3
C3
C3
C3
C3
C3
C3
C3
03
03
03
03
ENDCHAR
STARTCHAR 03AF
ENCODING 943
SWIDTH 308 0
DWIDTH 6 0
BBX 2 16 2 0
BITMAP
C0
C0
C0
C0
00
C0
C0
C0
C0
C0
C0
C0
C0
C0
C0
C0
ENDCHAR
STARTCHAR 03B0
ENCODING 944
SWIDTH 617 0
DWIDTH 12 0
BBX 8 16 2 0
BITMAP
18
18
DB
DB
00
C3
C3
C3
C3
C3
C3
C3
C3
E7
7E
3C
ENDCHAR
STARTCHAR 03B1
ENCODING 945
SWIDTH 617 0
DWIDTH 12 0
BBX 9 11 1 0
BITMAP
3D80
7F80
6180
C180
C180
C180
C180
C180
E380
7F80
3D80
ENDCHAR
STARTCHAR 03B2
ENCODING 946
SWIDTH 617 0
DWIDTH 12 0
BBX 9 19 2 -4
BITMAP
3C00
7E00
E300
C300
C300
C600
DC00
DE00
C300
C180
C180
C180
C380
FF00
DE00
C000
C000
C000
C000
ENDCHAR
STARTCHAR 03B3
ENCODING 947
SWIDTH 565 0
DWIDTH 11 0
BBX 10 15 0 -4
BITMAP
C0C0
6180
6180
6180
3300
3300
3F00
1E00
1E00
0C00
0C00
0C00
0C00
0C00
0C00
ENDCHAR
STARTCHAR 03B4
ENCODING 948
SWIDTH 617 0
DWIDTH 12 0
BBX 10 15 1 0
BITMAP
7F80
7F80
3000
0C00
1F00
3F80
6180
C0C0
C0C0
C0C0
C0C0
C0C0
6180
7F80
1E00
ENDCHAR
STARTCHAR 03B5
ENCODING 949
SWIDTH 514 0
DWIDTH 10 0
BBX 8 11 1 0
BITMAP
3F
FF
C0
C0
7C
7C
C0
C0
E1
7F
3E
ENDCHAR
STARTCHAR 03B6
ENCODING 950
SWIDTH 462 0
DWIDTH 9 0
BBX 8 19 1 -4
BITMAP
7F
7F
06
0C
18
30
60
60
C0
C0
C0
C0
E0
7E
3F
03
03
03
06
ENDCHAR
STARTCHAR 03B7
ENCODING 951
SWIDTH 617 0
DWIDTH 12 0
BBX 8 15 2 -4
BITMAP
DE
FF
E3
C3
C3
C3
C3
C3
C3
C3
C3
03
03
03
03
ENDCHAR
STARTCHAR 03B8
ENCODING 952
SWIDTH 617 0
DWIDTH 12 0
BBX 10 15 1 0
BITMAP
1E00
7F80
6180
E1C0
C0C0
C0C0
C0C0
FFC0
FFC0
C0C0
C0C0
C0C0
6180
7F80
1E00
ENDCHAR
STARTCHAR 03B9
ENCODING 953
SWIDTH 308 0
DWIDTH 6 0
BBX 2 11 2 0
BITMAP
C0
C0
C0
C0
C0
C0
C0
C0
C0
C0
C0
ENDCHAR
STARTCHAR 03BA
ENCODING 954
SWIDTH 565 0
DWIDTH 11 0
BBX 9 11 2 0
BITMAP
C300
C700
CC00
D800
F000
F000
D800
DC00
CE00
C700
C380
ENDCHAR
STARTCHAR 03BB
ENCODING 955
SWIDTH 565 0
DWIDTH 11 0
BBX 9 15 1 0
BITMAP
3000
3000
1800
1800
1800
0C00
1C00
1C00
3E00
3600
3600
6300
6300
6300
C180
ENDCHAR
STARTCHAR 03BC
ENCODING 956
SWIDTH 617 0
DWIDTH 12 0
BBX 8 15 2 -4
BITMAP
C3
C3
C3
C3
C3
C3
C3
C3
E7
FF
DB
C0
C0
C0
C0
ENDCHAR
STARTCHAR 03BD
ENCODING 957
SWIDTH 565 0
DWIDTH 11 0
BBX 9 11 1 0
BITMAP
C180
6300
6300
6300
2200
3600
3600
1400
1400
1C00
0800
ENDCHAR
STARTCHAR 03BE
ENCODING 958
SWIDTH 514 0
DWIDTH 10 0
BBX 9 19 1 -4
BITMAP
FF00
FF00
3000
6000
6000
7000
1F00
3F00
6000
C000
C000
C000
E000
7F00
3F80
0180
0180
0180
0300
ENDCHAR
STARTCHAR 03BF
ENCODING 959
SWIDTH 617 0
DWIDTH 12 0
BBX 10 11 1 0
BITMAP
1E00
7F80
6180
C0C0
C0C0
C0C0
C0C0
C0C0
6180
7F80
1E00
ENDCHAR
STARTCHAR 03C0
ENCODING 960
SWIDTH 617 0
DWIDTH 12 0
BBX 8 11 2 0
BITMAP
FF
FF
C3
C3
C3
C3
C3
C3
C3
C3
C3
ENDCHAR
STARTCHAR 03C1
ENCODING 961
SWIDTH 617 0
DWIDTH 12 0
BBX 9 15 2 -4
BITMAP
3E00
7F00
E380
C180
C180
C180
C180
C180
C300
FF00
FE00
C000
C000
C000
C000
ENDCHAR
STARTCHAR 03C2
ENCODING 962
SWIDTH 514 0
DWIDTH 10 0
BBX 9 15 1 -4
BITMAP
1F80
3F80
7080
E000
C000
C000
C000
C000
6000
7F00
1F80
0180
0180
0180
0300
ENDCHAR
STARTCHAR 03C3
ENCODING 963
SWIDTH 617 0
DWIDTH 12 0
BBX 11 11 1 0
BITMAP
1FE0
7FE0
6180
C0C0
C0C0
C0C0
C0C0
C0C0
6180
7F80
1E00
ENDCHAR
STARTCHAR 03C4
ENCODING 964
SWIDTH 462 0
DWIDTH 9 0
BBX 10 11 -1 0
BITMAP
FFC0
FFC0
0C00
0C00
0C00
0C00
0C00
0C00
0C00
0C00
0C00
ENDCHAR
STARTCHAR 03C5
ENCODING 965
SWIDTH 617 0
DWIDTH 12 0
BBX 8 11 2 0
BITMAP
C3
C3
C3
C3
C3
C3
C3
C3
E7
7E
3C
ENDCHAR
STARTCHAR 03C6
ENCODING 966
SWIDTH 771 0
DWIDTH 15 0
BBX 13 15 1 -4
BITMAP
3BC0
63F0
6330
C318
C318
C318
C318
E318
7330
3FE0
1FC0
0300
0300
0300
0300
ENDCHAR
STARTCHAR 03C7
ENCODING 967
SWIDTH 565 0
DWIDTH 11 0
BBX 11 15 0 -4
BITMAP
E0E0
60C0
71C0
3180
1B00
1B00
0E00
0E00
0E00
1B00
1B00
3180
71C0
60C0
E0E0
ENDCHAR
STARTCHAR 03C8
ENCODING 968
SWIDTH 822 0
DWIDTH 16 0
BBX 12 15 2 -4
BITMAP
C630
C630
C630
C630
C630
C630
C630
C630
E670
7FE0
1F80
0600
0600
0600
0600
ENDCHAR
STARTCHAR 03C9
ENCODING 969
SWIDTH 771 0
DWIDTH 15 0
BBX 14 11 0 0
BITMAP
3870
7038
6018
C30C
C30C
C30C
C30C
C30C
E31C
7FF8
3CF0
ENDCHAR
STARTCHAR 03CA
ENCODING 970
SWIDTH 308 0
DWIDTH 6 0
BBX 6 14 0 0
BITMAP
CC
CC
00
30
30
30
30
30
30
30
30
30
30
30
ENDCHAR
STARTCHAR 03CB
ENCODING 971
SWIDTH 617 0
DWIDTH 12 0
BBX 8 14 2 0
BITMAP
66
66
00
C3
C3
C3
C3
C3
C3
C3
C3
E7
7E
3C
ENDCHAR
STARTCHAR 03CC
ENCODING 972
SWIDTH 617 0
DWIDTH 12 0
BBX 10 16 1 0
BITMAP
0C00
0C00
0C00
0C00
0000
1E00
7F80
6180
C0C0
C0C0
C0C0
C0C0
C0C0
6180
7F80
1E00
ENDCHAR
STARTCHAR 03CD
ENCODING 973
SWIDTH 617 0
DWIDTH 12 0
BBX 8 16 2 0
BITMAP
18
18
18
18
00
C3
C3
C3
C3
C3
C3
C3
C3
E7
7E
3C
ENDCHAR
STARTCHAR 03CE
ENCODING 974
SWIDTH 771 0
DWIDTH 15 0
BBX 14 16 0 0
BITMAP
0300
0300
0300
0300
0000
3870
7038
6018
C30C
C30C
C30C
C30C
C30C
E31C
7FF8
3CF0
ENDCHAR
STARTCHAR 0401
ENCODING 1025
SWIDTH 617 0
DWIDTH 12 0
BBX 9 17 2 0
BITMAP
3300
3300
0000
FF80
FF80
C000
C000
C000
FF80
FF80
C000
C000
C000
C000
C000
FF80
FF80
ENDCHAR
STARTCHAR 0402
ENCODING 1026
SWIDTH 771 0
DWIDTH 15 0
BBX 14 14 0 0
BITMAP
FFE0
FFE0
0C00
0C00
0C00
0FF0
0FF8
0C1C
0C0C
0C0C
0C0C
0C1C
0CF8
0CF0
ENDCHAR
STARTCHAR 0403
ENCODING 1027
SWIDTH 565 0
DWIDTH 11 0
BBX 9 18 2 0
BITMAP
0700
0600
0C00
0000
FF80
FF80
C000
C000
C000
C000
C000
C000
C000
C000
C000
C000
C000
C000
ENDCHAR
STARTCHAR 0404
ENCODING 1028
SWIDTH 668 0
DWIDTH 13 0
BBX 11 14 1 0
BITMAP
0FC0
3FE0
7020
6000
E000
C000
FF80
FF80
C000
C000
6000
7020
3FE0
0FC0
ENDCHAR
STARTCHAR 0405
ENCODING 1029
SWIDTH 668 0
DWIDTH 13 0
BBX 11 14 1 0
BITMAP
3F80
7FC0
E040
C000
C000
E000
7F00
1FC0
00E0
0060
0060
C0E0
FFC0
7F00
ENDCHAR
STARTCHAR 0406
ENCODING 1030
SWIDTH 411 0
DWIDTH 8 0
BBX 6 14 1 0
BITMAP
FC
FC
30
30
30
30
30
30
30
30
30
30
FC
FC
ENDCHAR
STARTCHAR 0407
ENCODING 1031
SWIDTH 411 0
DWIDTH 8 0
BBX 6 17 1 0
BITMAP
CC
CC
00
FC
FC
30
30
30
30
30
30
30
30
30
30
FC
FC
ENDCHAR
STARTCHAR 0408
ENCODING 1032
SWIDTH 462 0
DWIDTH 9 0
BBX 7 14 0 0
BITMAP
3E
3E
06
06
06
06
06
06
06
06
06
0E
FC
F8
ENDCHAR
STARTCHAR 0409
ENCODING 1033
SWIDTH 1080 0
DWIDTH 21 0
BBX 20 14 0 0
BITMAP
1FF000
1FF000
183000
183000
183000
183FC0
183FE0
183070
183030
383030
303030
303070
E03FE0
E03FC0
ENDCHAR
STARTCHAR 040A
ENCODING 1034
SWIDTH 1080 0
DWIDTH 21 0
BBX 18 14 2 0
BITMAP
C0C000
C0C000
C0C000
C0C000
C0C000
FFFF00
FFFF80
C0C1C0
C0C0C0
C0C0C0
C0C0C0
C0C1C0
C0FF80
C0FF00
ENDCHAR
STARTCHAR 040B
ENCODING 1035
SWIDTH 822 0
DWIDTH 16 0
BBX 15 14 0 0
BITMAP
FFE0
FFE0
0C00
0C00
0C00
0DF8
0FFC
0E0E
0C06
0C06
0C06
0C06
0C06
0C06
ENDCHAR
STARTCHAR 040C
ENCODING 1036
SWIDTH 668 0
DWIDTH 13 0
BBX 11 18 2 0
BITMAP
0700
0600
0C00
0000
C1C0
C3C0
C300
C600
C600
CC00
F800
F800
CC00
C600
C700
C380
C1C0
C0E0
ENDCHAR
STARTCHAR 040E
ENCODING 1038
SWIDTH 617 0
DWIDTH 12 0
BBX 12 18 0 0
BITMAP
18C0
18C0
0F80
0000
E030
6060
7060
30C0
38C0
1980
1D80
0F80
0F00
0700
0600
0E00
7C00
7800
ENDCHAR
STARTCHAR 040F
ENCODING 1039
SWIDTH 720 0
DWIDTH 14 0
BBX 10 17 2 -3
BITMAP
C0C0
C0C0
C0C0
C0C0
C0C0
C0C0
C0C0
C0C0
C0C0
C0C0
C0C0
C0C0
FFC0
FFC0
0C00
0C00
0C00
ENDCHAR
STARTCHAR 0410
ENCODING 1040
SWIDTH 668 0
DWIDTH 13 0
BBX 13 14 0 0
BITMAP
0700
0700
0D80
0D80
0D80
18C0
18C0
30E0
3FE0
3FE0
6030
6030
6030
C018
ENDCHAR
STARTCHAR 0411
ENCODING 1041
SWIDTH 668 0
DWIDTH 13 0
BBX 10 14 2 0
BITMAP
FF80
FF80
C000
C000
C000
FF00
FF80
C1C0
C0C0
C0C0
C0C0
C1C0
FF80
FF00
ENDCHAR
STARTCHAR 0412
ENCODING 1042
SWIDTH 668 0
DWIDTH 13 0
BBX 10 14 2 0
BITMAP
FE00
FF80
C180
C180
C180
C300
FE00
FF80
C1C0
C0C0
C0C0
C1C0
FF80
FF00
ENDCHAR
STARTCHAR 0413
ENCODING 1043
SWIDTH 565 0
DWIDTH 11 0
BBX 9 14 2 0
BITMAP
FF80
FF80
C000
C000
C000
C000
C000
C000
C000
C000
C000
C000
C000
C000
ENDCHAR
STARTCHAR 0414
ENCODING 1044
SWIDTH 720 0
DWIDTH 14 0
BBX 13 17 0 -3
BITMAP
0FF0
0FF0
0C30
0C30
0C30
1C30
1830
1830
1830
3030
3030
6030
FFF8
FFF8
C018
C018
C018
ENDCHAR
STARTCHAR 0415
ENCODING 1045
SWIDTH 617 0
DWIDTH 12 0
BBX 9 14 2 0
BITMAP
FF80
FF80
C000
C000
C000
FF80
FF80
C000
C000
C000
C000
C000
FF80
FF80
ENDCHAR
STARTCHAR 0416
ENCODING 1046
SWIDTH 925 0
DWIDTH 18 0
BBX 18 14 0 0
BITMAP
70C380
78C780
18C600
18C600
0CCC00
0EDC00
07F800
07F800
0EDC00
0CCC00
18C600
38C700
70C380
E0C1C0
ENDCHAR
STARTCHAR 0417
ENCODING 1047
SWIDTH 617 0
DWIDTH 12 0
BBX 10 14 1 0
BITMAP
7F00
FF80
81C0
00C0
00C0
0180
1F00
1F80
01C0
00C0
00C0
81C0
FF80
7E00
ENDCHAR
STARTCHAR 0418
ENCODING 1048
SWIDTH 720 0
DWIDTH 14 0
BBX 10 14 2 0
BITMAP
C0C0
C1C0
C1C0
C3C0
C6C0
C6C0
CCC0
C8C0
D8C0
D0C0
F0C0
E0C0
E0C0
C0C0
ENDCHAR
STARTCHAR 0419
ENCODING 1049
SWIDTH 720 0
DWIDTH 14 0
BBX 10 18 2 0
BITMAP
3300
3300
1E00
0000
C0C0
C1C0
C1C0
C3C0
C6C0
C6C0
CCC0
C8C0
D8C0
D0C0
F0C0
E0C0
E0C0
C0C0
ENDCHAR
STARTCHAR 041A
ENCODING 1050
SWIDTH 668 0
DWIDTH 13 0
BBX 11 14 2 0
BITMAP
C1C0
C3C0
C300
C600
C600
CC00
F800
F800
CC00
C600
C700
C380
C1C0
C0E0
ENDCHAR
STARTCHAR 041B
ENCODING 1051
SWIDTH 720 0
DWIDTH 14 0
BBX 12 14 0 0
BITMAP
1FF0
1FF0
1830
1830
1830
1830
1830
1830
1830
3830
3030
3030
E030
E030
ENDCHAR
STARTCHAR 041C
ENCODING 1052
SWIDTH 822 0
DWIDTH 16 0
BBX 12 14 2 0
BITMAP
E070
E070
F0F0
D0B0
D9B0
C930
CD30
CF30
C630
C630
C030
C030
C030
C030
ENDCHAR
STARTCHAR 041D
ENCODING 1053
SWIDTH 720 0
DWIDTH 14 0
BBX 10 14 2 0
BITMAP
C0C0
C0C0
C0C0
C0C0
C0C0
FFC0
FFC0
C0C0
C0C0
C0C0
C0C0
C0C0
C0C0
C0C0
ENDCHAR
STARTCHAR 041E
ENCODING 1054
SWIDTH 771 0
DWIDTH 15 0
BBX 13 14 1 0
BITMAP
0F80
3FE0
7070
6030
C018
C018
C018
C018
C018
C018
6030
7070
3FE0
0F80
ENDCHAR
STARTCHAR 041F
ENCODING 1055
SWIDTH 720 0
DWIDTH 14 0
BBX 10 14 2 0
BITMAP
FFC0
FFC0
C0C0
C0C0
C0C0
C0C0
C0C0
C0C0
C0C0
C0C0
C0C0
C0C0
C0C0
C0C0
ENDCHAR
STARTCHAR 0420
ENCODING 1056
SWIDTH 565 0
DWIDTH 11 0
BBX 8 14 2 0
BITMAP
FC
FE
C7
C3
C3
C3
C7
FE
FC
C0
C0
C0
C0
C0
ENDCHAR
STARTCHAR 0421
ENCODING 1057
SWIDTH 668 0
DWIDTH 13 0
BBX 11 14 1 0
BITMAP
0FC0
3FE0
7020
6000
C000
C000
C000
C000
C000
C000
6000
7020
3FE0
0F80
ENDCHAR
STARTCHAR 0422
ENCODING 1058
SWIDTH 617 0
DWIDTH 12 0
BBX 12 14 0 0
BITMAP
FFF0
FFF0
0600
0600
0600
0600
0600
0600
0600
0600
0600
0600
0600
0600
ENDCHAR
STARTCHAR 0423
ENCODING 1059
SWIDTH 617 0
DWIDTH 12 0
BBX 12 14 0 0
BITMAP
E030
6060
7060
30C0
38C0
1980
1D80
0F80
0F00
0700
0600
0E00
7C00
7800
ENDCHAR
STARTCHAR 0424
ENCODING 1060
SWIDTH 822 0
DWIDTH 16 0
BBX 14 14 1 0
BITMAP
0300
1FE0
3FF0
7338
E31C
C30C
C30C
C30C
E31C
7338
3FF0
1FE0
0300
0300
ENDCHAR
STARTCHAR 0425
ENCODING 1061
SWIDTH 668 0
DWIDTH 13 0
BBX 11 14 1 0
BITMAP
E0E0
60C0
3180
3180
1B00
0A00
0E00
0E00
0B00
1B00
3180
3180
60C0
E0E0
ENDCHAR
STARTCHAR 0426
ENCODING 1062
SWIDTH 720 0
DWIDTH 14 0
BBX 11 17 2 -3
BITMAP
C0C0
C0C0
C0C0
C0C0
C0C0
C0C0
C0C0
C0C0
C0C0
C0C0
C0C0
C0C0
FFE0
FFE0
0060
0060
0060
ENDCHAR
STARTCHAR 0427
ENCODING 1063
SWIDTH 720 0
DWIDTH 14 0
BBX 11 14 1 0
BITMAP
C060
C060
C060
C060
C060
C060
E060
7FE0
3F60
0060
0060
0060
0060
0060
ENDCHAR
STARTCHAR 0428
ENCODING 1064
SWIDTH 1028 0
DWIDTH 20 0
BBX 16 14 2 0
BITMAP
C183
C183
C183
C183
C183
C183
C183
C183
C183
C183
C183
C183
FFFF
FFFF
ENDCHAR
STARTCHAR 0429
ENCODING 1065
SWIDTH 1028 0
DWIDTH 20 0
BBX 18 17 2 -3
BITMAP
C18300
C18300
C18300
C18300
C18300
C18300
C18300
C18300
C18300
C18300
C18300
C18300
FFFFC0
FFFFC0
0000C0
0000C0
0000C0
ENDCHAR
STARTCHAR 042A
ENCODING 1066
SWIDTH 771 0
DWIDTH 15 0
BBX 14 14 0 0
BITMAP
FC00
FC00
0C00
0C00
0C00
0FF0
0FF8
0C1C
0C0C
0C0C
0C0C
0C1C
0FF8
0FF0
ENDCHAR
STARTCHAR 042B
ENCODING 1067
SWIDTH 874 0
DWIDTH 17 0
BBX 13 14 2 0
BITMAP
C018
C018
C018
C018
C018
FE18
FF18
C398
C198
C198
C198
C398
FF18
FE18
ENDCHAR
STARTCHAR 042C
ENCODING 1068
SWIDTH 668 0
DWIDTH 13 0
BBX 10 14 2 0
BITMAP
C000
C000
C000
C000
C000
FF00
FF80
C1C0
C0C0
C0C0
C0C0
C1C0
FF80
FF00
ENDCHAR
STARTCHAR 042D
ENCODING 1069
SWIDTH 668 0
DWIDTH 13 0
BBX 11 14 1 0
BITMAP
7E00
FF80
81C0
00C0
0060
0060
3FE0
3FE0
0060
0060
00C0
81C0
FF80
7E00
ENDCHAR
STARTCHAR 042E
ENCODING 1070
SWIDTH 1028 0
DWIDTH 20 0
BBX 17 14 2 0
BITMAP
C0F800
C3FE00
C70700
C60300
CC0180
CC0180
FC0180
FC0180
CC0180
CC0180
C60300
C70700
C3FE00
C0F800
ENDCHAR
STARTCHAR 042F
ENCODING 1071
SWIDTH 668 0
DWIDTH 13 0
BBX 11 14 0 0
BITMAP
1FE0
3FE0
7060
6060
6060
7060
3FE0
0FE0
0C60
1860
3860
3060
6060
E060
ENDCHAR
STARTCHAR 0430
ENCODING 1072
SWIDTH 565 0
DWIDTH 11 0
BBX 8 11 1 0
BITMAP
7C
7E
03
03
3F
7F
E3
C3
C7
FF
7B
ENDCHAR
STARTCHAR 0431
ENCODING 1073
SWIDTH 617 0
DWIDTH 12 0
BBX 10 15 1 0
BITMAP
0F80
3F80
7800
6000
C000
DF00
FF80
E1C0
C0C0
C0C0
C0C0
E0C0
6180
7F80
1E00
ENDCHAR
STARTCHAR 0432
ENCODING 1074
SWIDTH 565 0
DWIDTH 11 0
BBX 8 11 2 0
BITMAP
FC
FE
C6
C6
FC
FE
C3
C3
C3
FE
FC
ENDCHAR
STARTCHAR 0433
ENCODING 1075
SWIDTH 462 0
DWIDTH 9 0
BBX 7 11 2 0
BITMAP
FE
FE
C0
C0
C0
C0
C0
C0
C0
C0
C0
ENDCHAR
STARTCHAR 0434
ENCODING 1076
SWIDTH 617 0
DWIDTH 12 0
BBX 11 13 0 -2
BITMAP
1F80
1F80
1980
1980
1980
3180
3180
3180
6180
FFE0
FFE0
C060
C060
ENDCHAR
STARTCHAR 0435
ENCODING 1077
SWIDTH 565 0
DWIDTH 11 0
BBX 9 11 1 0
BITMAP
1E00
7F00
6380
C180
FF80
FF80
C000
C000
6080
7F80
1F00
ENDCHAR
STARTCHAR 0436
ENCODING 1078
SWIDTH 771 0
DWIDTH 15 0
BBX 14 11 1 0
BITMAP
E31C
F33C
3330
1B60
1FE0
0FC0
1B60
3B70
3330
6318
E31C
ENDCHAR
STARTCHAR 0437
ENCODING 1079
SWIDTH 514 0
DWIDTH 10 0
BBX 8 11 1 0
BITMAP
7C
FF
83
03
3E
3E
03
03
87
FE
7C
ENDCHAR
STARTCHAR 0438
ENCODING 1080
SWIDTH 617 0
DWIDTH 12 0
BBX 8 11 2 0
BITMAP
C3
C7
C7
CF
CB
DB
D3
F3
E3
E3
C3
ENDCHAR
STARTCHAR 0439
ENCODING 1081
SWIDTH 617 0
DWIDTH 12 0
BBX 8 15 2 0
BITMAP
66
66
3C
00
C3
C7
C7
CF
CB
DB
D3
F3
E3
E3
C3
ENDCHAR
STARTCHAR 043A
ENCODING 1082
SWIDTH 565 0
DWIDTH 11 0
BBX 9 11 2 0
BITMAP
C700
CF00
CC00
DC00
D800
F000
F800
DC00
CE00
C700
C380
ENDCHAR
STARTCHAR 043B
ENCODING 1083
SWIDTH 617 0
DWIDTH 12 0
BBX 10 11 0 0
BITMAP
1FC0
1FC0
18C0
18C0
18C0
18C0
18C0
38C0
30C0
F0C0
E0C0
ENDCHAR
STARTCHAR 043C
ENCODING 1084
SWIDTH 668 0
DWIDTH 13 0
BBX 9 11 2 0
BITMAP
E180
E380
E380
F780
D580
D580
DD80
C980
C180
C180
C180
ENDCHAR
STARTCHAR 043D
ENCODING 1085
SWIDTH 617 0
DWIDTH 12 0
BBX 8 11 2 0
BITMAP
C3
C3
C3
C3
FF
FF
C3
C3
C3
C3
C3
ENDCHAR
STARTCHAR 043E
ENCODING 1086
SWIDTH 617 0
DWIDTH 12 0
BBX 10 11 1 0
BITMAP
1E00
7F80
6180
C0C0
C0C0
C0C0
C0C0
C0C0
6180
7F80
1E00
ENDCHAR
STARTCHAR 043F
ENCODING 1087
SWIDTH 617 0
DWIDTH 12 0
BBX 8 11 2 0
BITMAP
FF
FF
C3
C3
C3
C3
C3
C3
C3
C3
C3
ENDCHAR
STARTCHAR 0440
ENCODING 1088
SWIDTH 617 0
DWIDTH 12 0
BBX 9 15 2 -4
BITMAP
DE00
FF00
E380
C180
C180
C180
C180
C180
C300
FF00
FE00
C000
C000
C000
C000
ENDCHAR
STARTCHAR 0441
ENCODING 1089
SWIDTH 514 0
DWIDTH 10 0
BBX 8 11 1 0
BITMAP
1E
7F
61
C0
C0
C0
C0
C0
61
7F
3E
ENDCHAR
STARTCHAR 0442
ENCODING 1090
SWIDTH 462 0
DWIDTH 9 0
BBX 10 11 -1 0
BITMAP
FFC0
FFC0
0C00
0C00
0C00
0C00
0C00
0C00
0C00
0C00
0C00
ENDCHAR
STARTCHAR 0443
ENCODING 1091
SWIDTH 565 0
DWIDTH 11 0
BBX 9 15 1 -4
BITMAP
C180
6300
6300
6300
3600
3600
3600
1400
1C00
1C00
0800
1800
1800
3000
3000
ENDCHAR
STARTCHAR 0444
ENCODING 1092
SWIDTH 822 0
DWIDTH 16 0
BBX 14 19 1 -4
BITMAP
0300
0300
0300
0300
3FF0
7FF8
631C
C30C
C30C
C30C
C30C
C30C
E318
7FF8
3FF0
0300
0300
0300
0300
ENDCHAR
STARTCHAR 0445
ENCODING 1093
SWIDTH 565 0
DWIDTH 11 0
BBX 9 11 1 0
BITMAP
E380
6300
3600
3600
1C00
0800
1C00
3600
3600
6300
E380
ENDCHAR
STARTCHAR 0446
ENCODING 1094
SWIDTH 668 0
DWIDTH 13 0
BBX 10 13 2 -2
BITMAP
C300
C300
C300
C300
C300
C300
C300
C300
C300
FFC0
FFC0
00C0
00C0
ENDCHAR
STARTCHAR 0447
ENCODING 1095
SWIDTH 617 0
DWIDTH 12 0
BBX 9 11 1 0
BITMAP
C180
C180
C180
C180
E180
FF80
7F80
0180
0180
0180
0180
ENDCHAR
STARTCHAR 0448
ENCODING 1096
SWIDTH 874 0
DWIDTH 17 0
BBX 14 11 1 0
BITMAP
C30C
C30C
C30C
C30C
C30C
C30C
C30C
C30C
C30C
FFFC
FFFC
ENDCHAR
STARTCHAR 0449
ENCODING 1097
SWIDTH 874 0
DWIDTH 17 0
BBX 16 13 1 -2
BITMAP
C30C
C30C
C30C
C30C
C30C
C30C
C30C
C30C
C30C
FFFF
FFFF
0003
0003
ENDCHAR
STARTCHAR 044A
ENCODING 1098
SWIDTH 617 0
DWIDTH 12 0
BBX 11 11 0 0
BITMAP
F800
F800
1800
1800
1FC0
1FE0
1860
1860
1860
1FC0
1F80
ENDCHAR
STARTCHAR 044B
ENCODING 1099
SWIDTH 771 0
DWIDTH 15 0
BBX 11 11 2 0
BITMAP
C060
C060
C060
C060
FC60
FE60
C660
C660
C660
FC60
F860
ENDCHAR
STARTCHAR 044C
ENCODING 1100
SWIDTH 565 0
DWIDTH 11 0
BBX 8 11 2 0
BITMAP
C0
C0
C0
C0
FE
FF
C3
C3
C3
FE
FC
ENDCHAR
STARTCHAR 044D
ENCODING 1101
SWIDTH 514 0
DWIDTH 10 0
BBX 8 11 1 0
BITMAP
7C
FE
86
03
3F
3F
03
03
86
FE
78
ENDCHAR
STARTCHAR 044E
ENCODING 1102
SWIDTH 822 0
DWIDTH 16 0
BBX 13 11 2 0
BITMAP
C3E0
C7F0
C630
CC18
CC18
FC18
FC18
CC18
CE30
C7F0
C3E0
ENDCHAR
STARTCHAR 044F
ENCODING 1103
SWIDTH 565 0
DWIDTH 11 0
BBX 8 11 1 0
BITMAP
3F
7F
63
63
63
7F
3F
3B
33
63
E3
ENDCHAR
STARTCHAR 0451
ENCODING 1105
SWIDTH 565 0
DWIDTH 11 0
BBX 9 14 1 0
BITMAP
3300
3300
0000
1E00
7F00
6380
C180
FF80
FF80
C000
C000
6080
7F80
1F00
ENDCHAR
STARTCHAR 0452
ENCODING 1106
SWIDTH 617 0
DWIDTH 12 0
BBX 10 19 0 -4
BITMAP
3000
3000
FE00
3000
3780
3F80
38C0
30C0
30C0
30C0
30C0
30C0
30C0
30C0
30C0
00C0
0180
0780
0700
ENDCHAR
STARTCHAR 0453
ENCODING 1107
SWIDTH 462 0
DWIDTH 9 0
BBX 7 15 2 0
BITMAP
1C
18
30
00
FE
FE
C0
C0
C0
C0
C0
C0
C0
C0
C0
ENDCHAR
STARTCHAR 0454
ENCODING 1108
SWIDTH 514 0
DWIDTH 10 0
BBX 8 11 1 0
BITMAP
1E
7F
61
C0
FE
FE
C0
C0
61
7F
1E
ENDCHAR
STARTCHAR 0455
ENCODING 1109
SWIDTH 514 0
DWIDTH 10 0
BBX 8 11 1 0
BITMAP
3E
7F
C1
C0
F0
7E
0F
03
83
FE
7C
ENDCHAR
STARTCHAR 0456
ENCODING 1110
SWIDTH 308 0
DWIDTH 6 0
BBX 2 14 2 0
BITMAP
C0
C0
00
C0
C0
C0
C0
C0
C0
C0
C0
C0
C0
C0
ENDCHAR
STARTCHAR 0457
ENCODING 1111
SWIDTH 308 0
DWIDTH 6 0
BBX 6 14 0 0
BITMAP
CC
CC
00
30
30
30
30
30
30
30
30
30
30
30
ENDCHAR
STARTCHAR 0458
ENCODING 1112
SWIDTH 360 0
DWIDTH 7 0
BBX 5 18 0 -4
BITMAP
18
18
00
78
78
18
18
18
18
18
18
18
18
18
18
18
F8
F0
ENDCHAR
STARTCHAR 0459
ENCODING 1113
SWIDTH 874 0
DWIDTH 17 0
BBX 16 11 0 0
BITMAP
1FC0
1FC0
18C0
18C0
18FE
18FF
18C3
38C3
30C3
F0FE
E0FC
ENDCHAR
STARTCHAR 045A
ENCODING 1114
SWIDTH 874 0
DWIDTH 17 0
BBX 14 11 2 0
BITMAP
C300
C300
C300
C300
FFF8
FFFC
C30C
C30C
C30C
C3F8
C3F0
ENDCHAR
STARTCHAR 045B
ENCODING 1115
SWIDTH 617 0
DWIDTH 12 0
BBX 10 15 0 0
BITMAP
3000
3000
FE00
3000
3780
3FC0
38C0
30C0
30C0
30C0
30C0
30C0
30C0
30C0
30C0
ENDCHAR
STARTCHAR 045C
ENCODING 1116
SWIDTH 565 0
DWIDTH 11 0
BBX 9 15 2 0
BITMAP
0E00
0C00
1800
0000
C700
CF00
CC00
DC00
D800
F000
F800
DC00
CE00
C700
C380
ENDCHAR
STARTCHAR 045E
ENCODING 1118
SWIDTH 565 0
DWIDTH 11 0
BBX 9 19 1 -4
BITMAP
3600
3600
1C00
0000
C180
6300
6300
6300
3600
3600
3600
1400
1C00
1C00
0800
1800
1800
3000
3000
ENDCHAR
STARTCHAR 045F
ENCODING 1119
SWIDTH 617 0
DWIDTH 12 0
BBX 8 13 2 -2
BITMAP
C3
C3
C3
C3
C3
C3
C3
C3
C3
FF
FF
18
18
ENDCHAR
STARTCHAR 0490
ENCODING 1168
SWIDTH 565 0
DWIDTH 11 0
BBX 9 18 2 0
BITMAP
0180
0180
0180
0180
FF80
FF80
C000
C000
C000
C000
C000
C000
C000
C000
C000
C000
C000
C000
ENDCHAR
STARTCHAR 0491
ENCODING 1169
SWIDTH 462 0
DWIDTH 9 0
BBX 7 14 2 0
BITMAP
06
06
06
FE
FE
C0
C0
C0
C0
C0
C0
C0
C0
C0
ENDCHAR
STARTCHAR 1E80
ENCODING 7808
SWIDTH 977 0
DWIDTH 19 0
BBX 17 18 1 0
BITMAP
038000
018000
00C000
000000
C1C180
C1C180
614300
614300
616300
636300
322600
322600
323600
363600
141400
1C1C00
1C1C00
0C1C00
ENDCHAR
STARTCHAR 1E81
ENCODING 7809
SWIDTH 822 0
DWIDTH 16 0
BBX 14 15 1 0
BITMAP
0E00
0600
0300
0000
C30C
C30C
6398
6798
6498
6498
2CD0
3850
3870
3870
1820
ENDCHAR
STARTCHAR 1E82
ENCODING 7810
SWIDTH 977 0
DWIDTH 19 0
BBX 17 18 1 0
BITMAP
007000
006000
00C000
000000
C1C180
C1C180
614300
614300
616300
636300
322600
322600
323600
363600
141400
1C1C00
1C1C00
0C1C00
ENDCHAR
STARTCHAR 1E83
ENCODING 7811
SWIDTH 822 0
DWIDTH 16 0
BBX 14 15 1 0
BITMAP
01C0
0180
0300
0000
C30C
C30C
6398
6798
6498
6498
2CD0
3850
3870
3870
1820
ENDCHAR
STARTCHAR 1E84
ENCODING 7812
SWIDTH 977 0
DWIDTH 19 0
BBX 17 17 1 0
BITMAP
033000
033000
000000
C1C180
C1C180
614300
614300
616300
636300
322600
322600
323600
363600
141400
1C1C00
1C1C00
0C1C00
ENDCHAR
STARTCHAR 1E85
ENCODING 7813
SWIDTH 822 0
DWIDTH 16 0
BBX 14 14 1 0
BITMAP
0CC0
0CC0
0000
C30C
C30C
6398
6798
6498
6498
2CD0
3850
3870
3870
1820
ENDCHAR
STARTCHAR 1EA0
ENCODING 7840
SWIDTH 668 0
DWIDTH 13 0
BBX 13 18 0 -4
BITMAP
0700
0700
0D80
0D80
0D80
18C0
18C0
30E0
3FE0
3FE0
6030
6030
6030
C018
0000
0000
0300
0300
ENDCHAR
STARTCHAR 1EA1
ENCODING 7841
SWIDTH 565 0
DWIDTH 11 0
BBX 8 15 1 -4
BITMAP
7C
7E
03
03
3F
7F
E3
C3
C7
FF
7B
00
00
18
18
ENDCHAR
STARTCHAR 1EA2
ENCODING 7842
SWIDTH 668 0
DWIDTH 13 0
BBX 13 19 0 0
BITMAP
0600
0100
0100
0300
0000
0700
0700
0D80
0D80
0D80
18C0
18C0
30E0
3FE0
3FE0
6030
6030
6030
C018
ENDCHAR
STARTCHAR 1EA3
ENCODING 7843
SWIDTH 565 0
DWIDTH 11 0
BBX 8 16 1 0
BITMAP
18
04
04
0C
00
7C
7E
03
03
3F
7F
E3
C3
C7
FF
7B
ENDCHAR
STARTCHAR 1EA4
ENCODING 7844
SWIDTH 668 0
DWIDTH 13 0
BBX 13 19 0 0
BITMAP
0318
0790
04A0
0CC0
0000
0700
0700
0D80
0D80
0D80
18C0
18C0
30E0
3FE0
3FE0
6030
6030
6030
C018
ENDCHAR
STARTCHAR 1EA5
ENCODING 7845
SWIDTH 565 0
DWIDTH 11 0
BBX 11 16 1 0
BITMAP
0C60
1E40
1280
3300
0000
7C00
7E00
0300
0300
3F00
7F00
E300
C300
C700
FF00
7B00
ENDCHAR
STARTCHAR 1EA6
ENCODING 7846
SWIDTH 668 0
DWIDTH 13 0
BBX 13 19 0 0
BITMAP
6300
2780
1480
0CC0
0000
0700
0700
0D80
0D80
0D80
18C0
18C0
30E0
3FE0
3FE0
6030
6030
6030
C018
ENDCHAR
STARTCHAR 1EA7
ENCODING 7847
SWIDTH 565 0
DWIDTH 11 0
BBX 9 16 0 0
BITMAP
C600
4F00
2900
1980
0000
3E00
3F00
0180
0180
1F80
3F80
7180
6180
6380
7F80
3D80
ENDCHAR
STARTCHAR 1EA8
ENCODING 7848
SWIDTH 668 0
DWIDTH 13 0
BBX 13 19 0 0
BITMAP
0070
0610
0F10
19A0
0000
0700
0700
0D80
0D80
0D80
18C0
18C0
30E0
3FE0
3FE0
6030
6030
6030
C018
ENDCHAR
STARTCHAR 1EA9
ENCODING 7849
SWIDTH 565 0
DWIDTH 11 0
BBX 10 18 1 0
BITMAP
0180
0040
0C40
1EC0
1200
3300
0000
7C00
7E00
0300
0300
3F00
7F00
E300
C300
C700
FF00
7B00
ENDCHAR
STARTCHAR 1EAA
ENCODING 7850
SWIDTH 668 0
DWIDTH 13 0
BBX 13 19 0 0
BITMAP
0640
0980
0300
0480
0000
0700
0700
0D80
0D80
0D80
18C0
18C0
30E0
3FE0
3FE0
6030
6030
6030
C018
ENDCHAR
STARTCHAR 1EAB
ENCODING 7851
SWIDTH 565 0
DWIDTH 11 0
BBX 8 19 1 0
BITMAP
1B
36
00
0C
1E
12
33
00
7C
7E
03
03
3F
7F
E3
C3
C7
FF
7B
ENDCHAR
STARTCHAR 1EAC
ENCODING 7852
SWIDTH 668 0
DWIDTH 13 0
BBX 13 23 0 -4
BITMAP
0300
0780
0480
0CC0
0000
0700
0700
0D80
0D80
0D80
18C0
18C0
30E0
3FE0
3FE0
6030
6030
6030
C018
0000
0000
0300
0300
ENDCHAR
STARTCHAR 1EAD
ENCODING 7853
SWIDTH 565 0
DWIDTH 11 0
BBX 8 20 1 -4
BITMAP
0C
1E
12
33
00
7C
7E
03
03
3F
7F
E3
C3
C7
FF
7B
00
00
18
18
ENDCHAR
STARTCHAR 1EAE
ENCODING 7854
SWIDTH 668 0
DWIDTH 13 0
BBX 13 19 0 0
BITMAP
0180
0300
0CC0
0780
0000
0700
0700
0D80
0D80
0D80
18C0
18C0
30E0
3FE0
3FE0
6030
6030
6030
C018
ENDCHAR
STARTCHAR 1EAF
ENCODING 7855
SWIDTH 565 0
DWIDTH 11 0
BBX 8 17 1 0
BITMAP
06
0C
33
33
1E
00
7C
7E
03
03
3F
7F
E3
C3
C7
FF
7B
ENDCHAR
STARTCHAR 1EB0
ENCODING 7856
SWIDTH 668 0
DWIDTH 13 0
BBX 13 19 0 0
BITMAP
0600
0300
0CC0
0780
0000
0700
0700
0D80
0D80
0D80
18C0
18C0
30E0
3FE0
3FE0
6030
6030
6030
C018
ENDCHAR
STARTCHAR 1EB1
ENCODING 7857
SWIDTH 565 0
DWIDTH 11 0
BBX 8 17 1 0
BITMAP
18
0C
33
33
1E
00
7C
7E
03
03
3F
7F
E3
C3
C7
FF
7B
ENDCHAR
STARTCHAR 1EB2
ENCODING 7858
SWIDTH 668 0
DWIDTH 13 0
BBX 13 19 0 0
BITMAP
0300
0100
0CC0
0780
0000
0700
0700
0D80
0D80
0D80
18C0
18C0
30E0
3FE0
3FE0
6030
6030
6030
C018
ENDCHAR
STARTCHAR 1EB3
ENCODING 7859
SWIDTH 565 0
DWIDTH 11 0
BBX 8 18 1 0
BITMAP
0C
04
08
33
33
1E
00
7C
7E
03
03
3F
7F
E3
C3
C7
FF
7B
ENDCHAR
STARTCHAR 1EB4
ENCODING 7860
SWIDTH 668 0
DWIDTH 13 0
BBX 13 19 0 0
BITMAP
0640
0980
0CC0
0780
0000
0700
0700
0D80
0D80
0D80
18C0
18C0
30E0
3FE0
3FE0
6030
6030
6030
C018
ENDCHAR
STARTCHAR 1EB5
ENCODING 7861
SWIDTH 565 0
DWIDTH 11 0
BBX 8 19 1 0
BITMAP
13
3B
36
00
33
33
1E
00
7C
7E
03
03
3F
7F
E3
C3
C7
FF
7B
ENDCHAR
STARTCHAR 1EB6
ENCODING 7862
SWIDTH 668 0
DWIDTH 13 0
BBX 13 23 0 -4
BITMAP
18C0
18C0
0D80
0700
0000
0700
0700
0D80
0D80
0D80
18C0
18C0
30E0
3FE0
3FE0
6030
6030
6030
C018
0000
0000
0300
0300
ENDCHAR
STARTCHAR 1EB7
ENCODING 7863
SWIDTH 565 0
DWIDTH 11 0
BBX 8 20 1 -4
BITMAP
63
63
36
1C
00
7C
7E
03
03
3F
7F
E3
C3
C7
FF
7B
00
00
18
18
ENDCHAR
STARTCHAR 1EB8
ENCODING 7864
SWIDTH 617 0
DWIDTH 12 0
BBX 9 18 2 -4
BITMAP
FF80
FF80
C000
C000
C000
FF80
FF80
C000
C000
C000
C000
C000
FF80
FF80
0000
0000
0C00
0C00
ENDCHAR
STARTCHAR 1EB9
ENCODING 7865
SWIDTH 565 0
DWIDTH 11 0
BBX 9 15 1 -4
BITMAP
1E00
7F00
6380
C180
FF80
FF80
C000
C000
6080
7F80
1F00
0000
0000
0C00
0C00
ENDCHAR
STARTCHAR 1EBA
ENCODING 7866
SWIDTH 617 0
DWIDTH 12 0
BBX 9 19 2 0
BITMAP
1800
0400
0400
0C00
0000
FF80
FF80
C000
C000
C000
FF80
FF80
C000
C000
C000
C000
C000
FF80
FF80
ENDCHAR
STARTCHAR 1EBB
ENCODING 7867
SWIDTH 565 0
DWIDTH 11 0
BBX 9 16 1 0
BITMAP
0C00
0200
0200
0600
0000
1E00
7F00
6380
C180
FF80
FF80
C000
C000
6080
7F80
1F00
ENDCHAR
STARTCHAR 1EBC
ENCODING 7868
SWIDTH 617 0
DWIDTH 12 0
BBX 9 18 2 0
BITMAP
3880
4C80
4700
0000
FF80
FF80
C000
C000
C000
FF80
FF80
C000
C000
C000
C000
C000
FF80
FF80
ENDCHAR
STARTCHAR 1EBD
ENCODING 7869
SWIDTH 565 0
DWIDTH 11 0
BBX 9 15 1 0
BITMAP
3880
4C80
4700
0000
1E00
7F00
6380
C180
FF80
FF80
C000
C000
6080
7F80
1F00
ENDCHAR
STARTCHAR 1EBE
ENCODING 7870
SWIDTH 617 0
DWIDTH 12 0
BBX 11 19 2 0
BITMAP
0C60
1E40
1280
3300
0000
FF80
FF80
C000
C000
C000
FF80
FF80
C000
C000
C000
C000
C000
FF80
FF80
ENDCHAR
STARTCHAR 1EBF
ENCODING 7871
SWIDTH 565 0
DWIDTH 11 0
BBX 11 16 1 0
BITMAP
0C60
1E40
1280
3300
0000
1E00
7F00
6380
C180
FF80
FF80
C000
C000
6080
7F80
1F00
ENDCHAR
STARTCHAR 1EC0
ENCODING 7872
SWIDTH 617 0
DWIDTH 12 0
BBX 10 19 1 0
BITMAP
C600
4F00
2900
1980
0000
7FC0
7FC0
6000
6000
6000
7FC0
7FC0
6000
6000
6000
6000
6000
7FC0
7FC0
ENDCHAR
STARTCHAR 1EC1
ENCODING 7873
SWIDTH 565 0
DWIDTH 11 0
BBX 10 16 0 0
BITMAP
C600
4F00
2900
1980
0000
0F00
3F80
31C0
60C0
7FC0
7FC0
6000
6000
3040
3FC0
0F80
ENDCHAR
STARTCHAR 1EC2
ENCODING 7874
SWIDTH 617 0
DWIDTH 12 0
BBX 11 19 2 0
BITMAP
00E0
0C20
1E20
3340
0000
FF80
FF80
C000
C000
C000
FF80
FF80
C000
C000
C000
C000
C000
FF80
FF80
ENDCHAR
STARTCHAR 1EC3
ENCODING 7875
SWIDTH 565 0
DWIDTH 11 0
BBX 10 18 1 0
BITMAP
0180
0040
0C40
1EC0
1200
3300
0000
1E00
7F00
6380
C180
FF80
FF80
C000
C000
6080
7F80
1F00
ENDCHAR
STARTCHAR 1EC4
ENCODING 7876
SWIDTH 617 0
DWIDTH 12 0
BBX 9 19 2 0
BITMAP
1900
2600
0C00
1200
0000
FF80
FF80
C000
C000
C000
FF80
FF80
C000
C000
C000
C000
C000
FF80
FF80
ENDCHAR
STARTCHAR 1EC5
ENCODING 7877
SWIDTH 565 0
DWIDTH 11 0
BBX 9 19 1 0
BITMAP
1B00
3600
0000
0C00
1E00
1200
3300
0000
1E00
7F00
6380
C180
FF80
FF80
C000
C000
6080
7F80
1F00
ENDCHAR
STARTCHAR 1EC6
ENCODING 7878
SWIDTH 617 0
DWIDTH 12 0
BBX 9 23 2 -4
BITMAP
0C00
1E00
1200
3300
0000
FF80
FF80
C000
C000
C000
FF80
FF80
C000
C000
C000
C000
C000
FF80
FF80
0000
0000
0C00
0C00
ENDCHAR
STARTCHAR 1EC7
ENCODING 7879
SWIDTH 565 0
DWIDTH 11 0
BBX 9 20 1 -4
BITMAP
0C00
1E00
1200
3300
0000
1E00
7F00
6380
C180
FF80
FF80
C000
C000
6080
7F80
1F00
0000
0000
0C00
0C00
ENDCHAR
STARTCHAR 1EC8
ENCODING 7880
SWIDTH 411 0
DWIDTH 8 0
BBX 6 19 1 0
BITMAP
30
08
08
18
00
FC
FC
30
30
30
30
30
30
30
30
30
30
FC
FC
ENDCHAR
STARTCHAR 1EC9
ENCODING 7881
SWIDTH 308 0
DWIDTH 6 0
BBX 3 16 2 0
BITMAP
C0
20
20
60
00
C0
C0
C0
C0
C0
C0
C0
C0
C0
C0
C0
ENDCHAR
STARTCHAR 1ECA
ENCODING 7882
SWIDTH 411 0
DWIDTH 8 0
BBX 6 18 1 -4
BITMAP
FC
FC
30
30
30
30
30
30
30
30
30
30
FC
FC
00
00
30
30
ENDCHAR
STARTCHAR 1ECB
ENCODING 7883
SWIDTH 308 0
DWIDTH 6 0
BBX 2 18 2 -4
BITMAP
C0
C0
00
C0
C0
C0
C0
C0
C0
C0
C0
C0
C0
C0
00
00
C0
C0
ENDCHAR
STARTCHAR 1ECC
ENCODING 7884
SWIDTH 771 0
DWIDTH 15 0
BBX 13 18 1 -4
BITMAP
0F80
3FE0
7070
6030
C018
C018
C018
C018
C018
C018
6030
7070
3FE0
0F80
0000
0000
0300
0300
ENDCHAR
STARTCHAR 1ECD
ENCODING 7885
SWIDTH 617 0
DWIDTH 12 0
BBX 10 15 1 -4
BITMAP
1E00
7F80
6180
C0C0
C0C0
C0C0
C0C0
C0C0
6180
7F80
1E00
0000
0000
0C00
0C00
ENDCHAR
STARTCHAR 1ECE
ENCODING 7886
SWIDTH 771 0
DWIDTH 15 0
BBX 13 19 1 0
BITMAP
0600
0100
0100
0300
0000
0F80
3FE0
7070
6030
C018
C018
C018
C018
C018
C018
6030
7070
3FE0
0F80
ENDCHAR
STARTCHAR 1ECF
ENCODING 7887
SWIDTH 617 0
DWIDTH 12 0
BBX 10 16 1 0
BITMAP
0C00
0200
0200
0600
0000
1E00
7F80
6180
C0C0
C0C0
C0C0
C0C0
C0C0
6180
7F80
1E00
ENDCHAR
STARTCHAR 1ED0
ENCODING 7888
SWIDTH 771 0
DWIDTH 15 0
BBX 13 19 1 0
BITMAP
0318
0790
04A0
0CC0
0000
0F80
3FE0
7070
6030
C018
C018
C018
C018
C018
C018
6030
7070
3FE0
0F80
ENDCHAR
STARTCHAR 1ED1
ENCODING 7889
SWIDTH 617 0
DWIDTH 12 0
BBX 11 16 1 0
BITMAP
0C60
1E40
1280
3300
0000
1E00
7F80
6180
C0C0
C0C0
C0C0
C0C0
C0C0
6180
7F80
1E00
ENDCHAR
STARTCHAR 1ED2
ENCODING 7890
SWIDTH 771 0
DWIDTH 15 0
BBX 13 19 1 0
BITMAP
6300
2780
1480
0CC0
0000
0F80
3FE0
7070
6030
C018
C018
C018
C018
C018
C018
6030
7070
3FE0
0F80
ENDCHAR
STARTCHAR 1ED3
ENCODING 7891
SWIDTH 617 0
DWIDTH 12 0
BBX 11 16 0 0
BITMAP
C600
4F00
2900
1980
0000
0F00
3FC0
30C0
6060
6060
6060
6060
6060
30C0
3FC0
0F00
ENDCHAR
STARTCHAR 1ED4
ENCODING 7892
SWIDTH 771 0
DWIDTH 15 0
BBX 13 19 1 0
BITMAP
0038
0308
0788
0CD0
0000
0F80
3FE0
7070
6030
C018
C018
C018
C018
C018
C018
6030
7070
3FE0
0F80
ENDCHAR
STARTCHAR 1ED5
ENCODING 7893
SWIDTH 617 0
DWIDTH 12 0
BBX 10 18 1 0
BITMAP
0180
0040
0C40
1EC0
1200
3300
0000
1E00
7F80
6180
C0C0
C0C0
C0C0
C0C0
C0C0
6180
7F80
1E00
ENDCHAR
STARTCHAR 1ED6
ENCODING 7894
SWIDTH 771 0
DWIDTH 15 0
BBX 13 19 1 0
BITMAP
0640
0980
0300
0480
0000
0F80
3FE0
7070
6030
C018
C018
C018
C018
C018
C018
6030
7070
3FE0
0F80
ENDCHAR
STARTCHAR 1ED7
ENCODING 7895
SWIDTH 617 0
DWIDTH 12 0
BBX 10 19 1 0
BITMAP
1B00
3600
0000
0C00
1E00
1200
3300
0000
1E00
7F80
6180
C0C0
C0C0
C0C0
C0C0
C0C0
6180
7F80
1E00
ENDCHAR
STARTCHAR 1ED8
ENCODING 7896
SWIDTH 771 0
DWIDTH 15 0
BBX 13 23 1 -4
BITMAP
0300
0780
0480
0CC0
0000
0F80
3FE0
7070
6030
C018
C018
C018
C018
C018
C018
6030
7070
3FE0
0F80
0000
0000
0300
0300
ENDCHAR
STARTCHAR 1ED9
ENCODING 7897
SWIDTH 617 0
DWIDTH 12 0
BBX 10 20 1 -4
BITMAP
0C00
1E00
1200
3300
0000
1E00
7F80
6180
C0C0
C0C0
C0C0
C0C0
C0C0
6180
7F80
1E00
0000
0000
0C00
0C00
ENDCHAR
STARTCHAR 1EDA
ENCODING 7898
SWIDTH 771 0
DWIDTH 15 0
BBX 15 18 1 0
BITMAP
0380
0300
0600
0000
0F86
3FE6
7076
603C
C018
C018
C018
C018
C018
C018
6030
7070
3FE0
0F80
ENDCHAR
STARTCHAR 1EDB
ENCODING 7899
SWIDTH 617 0
DWIDTH 12 0
BBX 11 15 1 0
BITMAP
0700
0660
0C60
0060
1FC0
7F80
6180
C0C0
C0C0
C0C0
C0C0
C0C0
6180
7F80
1E00
ENDCHAR
STARTCHAR 1EDC
ENCODING 7900
SWIDTH 771 0
DWIDTH 15 0
BBX 15 18 1 0
BITMAP
0E00
0600
0300
0000
0F86
3FE6
7076
603C
C018
C018
C018
C018
C018
C018
6030
7070
3FE0
0F80
ENDCHAR
STARTCHAR 1EDD
ENCODING 7901
SWIDTH 617 0
DWIDTH 12 0
BBX 11 15 1 0
BITMAP
1C00
0C60
0660
0060
1FC0
7F80
6180
C0C0
C0C0
C0C0
C0C0
C0C0
6180
7F80
1E00
ENDCHAR
STARTCHAR 1EDE
ENCODING 7902
SWIDTH 771 0
DWIDTH 15 0
BBX 15 19 1 0
BITMAP
0600
0100
0100
0300
0000
0F86
3FE6
7076
603C
C018
C018
C018
C018
C018
C018
6030
7070
3FE0
0F80
ENDCHAR
STARTCHAR 1EDF
ENCODING 7903
SWIDTH 617 0
DWIDTH 12 0
BBX 11 16 1 0
BITMAP
0C00
0200
0260
0660
0060
1FC0
7F80
6180
C0C0
C0C0
C0C0
C0C0
C0C0
6180
7F80
1E00
ENDCHAR
STARTCHAR 1EE0
ENCODING 7904
SWIDTH 771 0
DWIDTH 15 0
BBX 15 18 1 0
BITMAP
0E20
1320
11C0
0000
0F86
3FE6
7076
603C
C018
C018
C018
C018
C018
C018
6030
7070
3FE0
0F80
ENDCHAR
STARTCHAR 1EE1
ENCODING 7905
SWIDTH 617 0
DWIDTH 12 0
BBX 11 15 1 0
BITMAP
3880
4CE0
4760
0060
1FC0
7F80
6180
C0C0
C0C0
C0C0
C0C0
C0C0
6180
7F80
1E00
ENDCHAR
STARTCHAR 1EE2
ENCODING 7906
SWIDTH 771 0
DWIDTH 15 0
BBX 15 18 1 -4
BITMAP
0F86
3FE6
7076
603C
C018
C018
C018
C018
C018
C018
6030
7070
3FE0
0F80
0000
0000
0300
0300
ENDCHAR
STARTCHAR 1EE3
ENCODING 7907
SWIDTH 617 0
DWIDTH 12 0
BBX 11 18 1 -4
BITMAP
0060
0060
0060
1FC0
7F80
6180
C0C0
C0C0
C0C0
C0C0
C0C0
6180
7F80
1E00
0000
0000
0C00
0C00
ENDCHAR
STARTCHAR 1EE4
ENCODING 7908
SWIDTH 720 0
DWIDTH 14 0
BBX 10 18 2 -4
BITMAP
C0C0
C0C0
C0C0
C0C0
C0C0
C0C0
C0C0
C0C0
C0C0
C0C0
C0C0
6180
7F80
1F00
0000
0000
0C00
0C00
ENDCHAR
STARTCHAR 1EE5
ENCODING 7909
SWIDTH 617 0
DWIDTH 12 0
BBX 8 15 2 -4
BITMAP
C3
C3
C3
C3
C3
C3
C3
C3
C7
FF
7B
00
00
18
18
ENDCHAR
STARTCHAR 1EE6
ENCODING 7910
SWIDTH 720 0
DWIDTH 14 0
BBX 10 19 2 0
BITMAP
0C00
0200
0200
0600
0000
C0C0
C0C0
C0C0
C0C0
C0C0
C0C0
C0C0
C0C0
C0C0
C0C0
C0C0
6180
7F80
1F00
ENDCHAR
STARTCHAR 1EE7
ENCODING 7911
SWIDTH 617 0
DWIDTH 12 0
BBX 8 16 2 0
BITMAP
18
04
04
0C
00
C3
C3
C3
C3
C3
C3
C3
C3
C7
FF
7B
ENDCHAR
STARTCHAR 1EE8
ENCODING 7912
SWIDTH 720 0
DWIDTH 14 0
BBX 13 18 2 0
BITMAP
0380
0318
0618
0018
C0F0
C0C0
C0C0
C0C0
C0C0
C0C0
C0C0
C0C0
C0C0
C0C0
C0C0
6180
7F80
1F00
ENDCHAR
STARTCHAR 1EE9
ENCODING 7913
SWIDTH 617 0
DWIDTH 12 0
BBX 11 15 2 0
BITMAP
0E00
0C60
1860
0060
C3C0
C300
C300
C300
C300
C300
C300
C300
C700
FF00
7B00
ENDCHAR
STARTCHAR 1EEA
ENCODING 7914
SWIDTH 720 0
DWIDTH 14 0
BBX 13 18 2 0
BITMAP
1C00
0C18
0618
0018
C0F0
C0C0
C0C0
C0C0
C0C0
C0C0
C0C0
C0C0
C0C0
C0C0
C0C0
6180
7F80
1F00
ENDCHAR
STARTCHAR 1EEB
ENCODING 7915
SWIDTH 617 0
DWIDTH 12 0
BBX 11 15 2 0
BITMAP
3800
1860
0C60
0060
C3C0
C300
C300
C300
C300
C300
C300
C300
C700
FF00
7B00
ENDCHAR
STARTCHAR 1EEC
ENCODING 7916
SWIDTH 720 0
DWIDTH 14 0
BBX 13 19 2 0
BITMAP
0C00
0200
0218
0618
0018
C0F0
C0C0
C0C0
C0C0
C0C0
C0C0
C0C0
C0C0
C0C0
C0C0
C0C0
6180
7F80
1F00
ENDCHAR
STARTCHAR 1EED
ENCODING 7917
SWIDTH 617 0
DWIDTH 12 0
BBX 11 16 2 0
BITMAP
1800
0400
0460
0C60
0060
C3C0
C300
C300
C300
C300
C300
C300
C300
C700
FF00
7B00
ENDCHAR
STARTCHAR 1EEE
ENCODING 7918
SWIDTH 720 0
DWIDTH 14 0
BBX 13 18 2 0
BITMAP
3880
4C98
4718
0018
C0F0
C0C0
C0C0
C0C0
C0C0
C0C0
C0C0
C0C0
C0C0
C0C0
C0C0
6180
7F80
1F00
ENDCHAR
STARTCHAR 1EEF
ENCODING 7919
SWIDTH 617 0
DWIDTH 12 0
BBX 11 15 2 0
BITMAP
7100
9960
8E60
0060
C3C0
C300
C300
C300
C300
C300
C300
C300
C700
FF00
7B00
ENDCHAR
STARTCHAR 1EF0
ENCODING 7920
SWIDTH 720 0
DWIDTH 14 0
BBX 13 21 2 -4
BITMAP
0018
0018
0018
C0F0
C0C0
C0C0
C0C0
C0C0
C0C0
C0C0
C0C0
C0C0
C0C0
C0C0
6180
7F80
1F00
0000
0000
0C00
0C00
ENDCHAR
STARTCHAR 1EF1
ENCODING 7921
SWIDTH 617 0
DWIDTH 12 0
BBX 11 18 2 -4
BITMAP
0060
0060
0060
C3C0
C300
C300
C300
C300
C300
C300
C300
C700
FF00
7B00
0000
0000
1800
1800
ENDCHAR
STARTCHAR 1EF2
ENCODING 7922
SWIDTH 617 0
DWIDTH 12 0
BBX 12 18 0 0
BITMAP
0E00
0600
0300
0000
E070
6060
30C0
30C0
1980
1F80
0F00
0600
0600
0600
0600
0600
0600
0600
ENDCHAR
STARTCHAR 1EF3
ENCODING 7923
SWIDTH 565 0
DWIDTH 11 0
BBX 9 19 1 -4
BITMAP
3800
1800
0C00
0000
C180
6300
6300
6300
3600
3600
3600
1400
1C00
1C00
0800
1800
1800
3000
3000
ENDCHAR
STARTCHAR 1EF4
ENCODING 7924
SWIDTH 617 0
DWIDTH 12 0
BBX 12 18 0 -4
BITMAP
E070
6060
30C0
30C0
1980
1F80
0F00
0600
0600
0600
0600
0600
0600
0600
0000
0000
0600
0600
ENDCHAR
STARTCHAR 1EF5
ENCODING 7925
SWIDTH 565 0
DWIDTH 11 0
BBX 9 15 1 -4
BITMAP
C180
6300
6300
6300
3600
3600
3600
1400
1C00
1C00
0800
1800
1800
3300
3300
ENDCHAR
STARTCHAR 1EF6
ENCODING 7926
SWIDTH 617 0
DWIDTH 12 0
BBX 12 19 0 0
BITMAP
0600
0100
0100
0300
0000
E070
6060
30C0
30C0
1980
1F80
0F00
0600
0600
0600
0600
0600
0600
0600
ENDCHAR
STARTCHAR 1EF7
ENCODING 7927
SWIDTH 565 0
DWIDTH 11 0
BBX 9 20 1 -4
BITMAP
1800
0400
0400
0C00
0000
C180
6300
6300
6300
3600
3600
3600
1400
1C00
1C00
0800
1800
1800
3000
3000
ENDCHAR
STARTCHAR 1EF8
ENCODING 7928
SWIDTH 617 0
DWIDTH 12 0
BBX 12 18 0 0
BITMAP
1C40
2640
2380
0000
E070
6060
30C0
30C0
1980
1F80
0F00
0600
0600
0600
0600
0600
0600
0600
ENDCHAR
STARTCHAR 1EF9
ENCODING 7929
SWIDTH 565 0
DWIDTH 11 0
BBX 9 19 1 -4
BITMAP
3880
4C80
4700
0000
C180
6300
6300
6300
3600
3600
3600
1400
1C00
1C00
0800
1800
1800
3000
3000
ENDCHAR
STARTCHAR 2013
ENCODING 8211
SWIDTH 617 0
DWIDTH 12 0
BBX 10 2 1 5
BITMAP
FFC0
FFC0
ENDCHAR
STARTCHAR 2014
ENCODING 8212
SWIDTH 977 0
DWIDTH 19 0
BBX 17 2 1 5
BITMAP
FFFF80
FFFF80
ENDCHAR
STARTCHAR 2015
ENCODING 8213
SWIDTH 977 0
DWIDTH 19 0
BBX 15 2 2 5
BITMAP
FFFE
FFFE
ENDCHAR
STARTCHAR 2017
ENCODING 8215
SWIDTH 617 0
DWIDTH 12 0
BBX 12 3 0 -4
BITMAP
FFF0
0000
FFF0
ENDCHAR
STARTCHAR 2018
ENCODING 8216
SWIDTH 257 0
DWIDTH 5 0
BBX 4 5 0 10
BITMAP
E0
60
60
30
30
ENDCHAR
STARTCHAR 2019
ENCODING 8217
SWIDTH 257 0
DWIDTH 5 0
BBX 4 5 1 10
BITMAP
70
60
60
C0
C0
ENDCHAR
STARTCHAR 201A
ENCODING 8218
SWIDTH 257 0
DWIDTH 5 0
BBX 4 5 0 -2
BITMAP
70
60
60
C0
C0
ENDCHAR
STARTCHAR 201B
ENCODING 8219
SWIDTH 257 0
DWIDTH 5 0
BBX 4 5 0 10
BITMAP
30
30
60
60
E0
ENDCHAR
STARTCHAR 201C
ENCODING 8220
SWIDTH 462 0
DWIDTH 9 0
BBX 8 5 0 10
BITMAP
EE
66
66
33
33
ENDCHAR
STARTCHAR 201D
ENCODING 8221
SWIDTH 462 0
DWIDTH 9 0
BBX 8 5 1 10
BITMAP
77
66
66
CC
CC
ENDCHAR
STARTCHAR 201E
ENCODING 8222
SWIDTH 462 0
DWIDTH 9 0
BBX 8 5 0 -2
BITMAP
77
66
66
CC
CC
ENDCHAR
STARTCHAR 2020
ENCODING 8224
SWIDTH 617 0
DWIDTH 12 0
BBX 9 14 1 1
BITMAP
0800
0800
0800
0800
FF80
0800
0800
0800
0800
0800
0800
0800
0800
0800
ENDCHAR
STARTCHAR 2021
ENCODING 8225
SWIDTH 617 0
DWIDTH 12 0
BBX 9 14 1 1
BITMAP
0800
0800
0800
0800
FF80
0800
0800
0800
0800
FF80
0800
0800
0800
0800
ENDCHAR
STARTCHAR 2022
ENCODING 8226
SWIDTH 514 0
DWIDTH 10 0
BBX 7 7 2 3
BITMAP
38
7C
FE
FE
FE
7C
38
ENDCHAR
STARTCHAR 2026
ENCODING 8230
SWIDTH 822 0
DWIDTH 16 0
BBX 12 2 2 0
BITMAP
C630
C630
ENDCHAR
STARTCHAR 2030
ENCODING 8240
SWIDTH 1491 0
DWIDTH 29 0
BBX 26 14 1 0
BITMAP
3C180000
44100000
C6300000
C6200000
C6600000
C6400000
444F8F80
7C888880
0098D8C0
0198D8C0
0118D8C0
0318D8C0
02088880
060F8F80
ENDCHAR
STARTCHAR 2032
ENCODING 8242
SWIDTH 360 0
DWIDTH 7 0
BBX 4 6 2 8
BITMAP
30
60
60
40
C0
80
ENDCHAR
STARTCHAR 2033
ENCODING 8243
SWIDTH 565 0
DWIDTH 11 0
BBX 8 6 2 8
BITMAP
33
66
66
44
CC
88
ENDCHAR
STARTCHAR 2039
ENCODING 8249
SWIDTH 462 0
DWIDTH 9 0
BBX 5 9 2 2
BITMAP
08
18
30
60
C0
60
30
18
08
ENDCHAR
STARTCHAR 203A
ENCODING 8250
SWIDTH 462 0
DWIDTH 9 0
BBX 5 9 2 2
BITMAP
80
C0
60
30
18
30
60
C0
80
ENDCHAR
STARTCHAR 203C
ENCODING 8252
SWIDTH 617 0
DWIDTH 12 0
BBX 6 14 3 0
BITMAP
CC
CC
CC
CC
CC
CC
CC
CC
CC
CC
00
00
CC
CC
ENDCHAR
STARTCHAR 203E
ENCODING 8254
SWIDTH 617 0
DWIDTH 12 0
BBX 12 1 0 16
BITMAP
FFF0
ENDCHAR
STARTCHAR 2044
ENCODING 8260
SWIDTH 360 0
DWIDTH 7 0
BBX 9 14 -1 0
BITMAP
0180
0100
0300
0200
0600
0400
0C00
1800
1000
3000
2000
6000
4000
C000
ENDCHAR
STARTCHAR 207F
ENCODING 8319
SWIDTH 514 0
DWIDTH 10 0
BBX 8 9 1 5
BITMAP
DE
E3
C3
C3
C3
C3
C3
C3
C3
ENDCHAR
STARTCHAR 20A3
ENCODING 8355
SWIDTH 617 0
DWIDTH 12 0
BBX 11 14 0 0
BITMAP
3FE0
3FE0
3000
3000
3000
3FC0
3FC0
3000
3000
3000
FE00
3000
3000
3000
ENDCHAR
STARTCHAR 20A4
ENCODING 8356
SWIDTH 617 0
DWIDTH 12 0
BBX 10 14 1 0
BITMAP
0FC0
1FC0
3800
3000
3000
3000
7F00
3000
3000
7F00
3000
6000
FFC0
FFC0
ENDCHAR
STARTCHAR 20A7
ENCODING 8359
SWIDTH 1131 0
DWIDTH 22 0
BBX 19 14 2 0
BITMAP
F80000
FC0000
CEC000
C6C000
C7FFC0
C7FFE0
CECC20
FCCC00
F8CF80
C0C3E0
C0C060
C0C860
C0CFE0
C0C780
ENDCHAR
STARTCHAR 20AB
ENCODING 8363
SWIDTH 617 0
DWIDTH 12 0
BBX 11 18 1 -3
BITMAP
0180
0FE0
0180
0180
3F80
7F80
6180
C180
C180
C180
C180
C180
E380
7F80
3D80
0000
0000
7F80
ENDCHAR
STARTCHAR 20AC
ENCODING 8364
SWIDTH 617 0
DWIDTH 12 0
BBX 11 14 0 0
BITMAP
07C0
1FE0
3820
3000
6000
FE00
6000
6000
FC00
6000
3000
3820
1FE0
07C0
ENDCHAR
STARTCHAR 2105
ENCODING 8453
SWIDTH 1028 0
DWIDTH 20 0
BBX 18 14 1 0
BITMAP
3C1800
643000
C03000
C07000
C06000
C06000
64CF80
3CC880
0198C0
0198C0
0398C0
0318C0
030880
060F80
ENDCHAR
STARTCHAR 2113
ENCODING 8467
SWIDTH 308 0
DWIDTH 6 0
BBX 7 14 -1 0
BITMAP
1C
36
36
36
3C
3C
38
30
30
70
B0
30
32
1E
ENDCHAR
STARTCHAR 2116
ENCODING 8470
SWIDTH 1131 0
DWIDTH 22 0
BBX 18 14 2 0
BITMAP
E0C780
F0CFC0
F0CCC0
D8CCC0
D8CCC0
C8CCC0
CCCFC0
C4C780
C6C000
C6C000
C3C780
C3C000
C1C000
C1C000
ENDCHAR
STARTCHAR 2122
ENCODING 8482
SWIDTH 977 0
DWIDTH 19 0
BBX 15 7 2 7
BITMAP
F9C6
214A
214A
2132
2132
2102
2102
ENDCHAR
STARTCHAR 2126
ENCODING 8486
SWIDTH 822 0
DWIDTH 16 0
BBX 14 14 1 0
BITMAP
0FC0
3FF0
7038
E01C
C00C
C00C
C00C
C00C
6018
3030
1CE0
0CC0
FCFC
FCFC
ENDCHAR
STARTCHAR 212E
ENCODING 8494
SWIDTH 720 0
DWIDTH 14 0
BBX 10 12 2 0
BITMAP
1F00
3F80
6180
C0C0
C0C0
FFC0
FFC0
C000
C000
6040
3FC0
1F80
ENDCHAR
STARTCHAR 215B
ENCODING 8539
SWIDTH 977 0
DWIDTH 19 0
BBX 16 14 2 0
BITMAP
3060
F040
30C0
3080
3180
313E
3363
3663
3432
0C3E
0863
1863
1063
303E
ENDCHAR
STARTCHAR 215C
ENCODING 8540
SWIDTH 977 0
DWIDTH 19 0
BBX 18 14 1 0
BITMAP
F81800
8C1000
0C3000
0C2000
706000
0C4F80
0CD8C0
8D98C0
F90C80
030F80
0218C0
0618C0
0418C0
0C0F80
ENDCHAR
STARTCHAR 215D
ENCODING 8541
SWIDTH 977 0
DWIDTH 19 0
BBX 18 14 1 0
BITMAP
FC1800
C01000
C03000
F82000
0C6000
0C4F80
0CD8C0
9D98C0
F90C80
030F80
0218C0
0618C0
0418C0
0C0F80
ENDCHAR
STARTCHAR 215E
ENCODING 8542
SWIDTH 977 0
DWIDTH 19 0
BBX 17 14 1 0
BITMAP
FC3000
0C2000
186000
184000
30C000
309F00
61B180
633180
E21900
061F00
043180
0C3180
083180
181F00
ENDCHAR
STARTCHAR 2202
ENCODING 8706
SWIDTH 617 0
DWIDTH 12 0
BBX 9 14 1 0
BITMAP
3E00
7F00
4380
0180
0180
3D80
7F80
E380
C180
C180
C300
E300
7E00
3C00
ENDCHAR
STARTCHAR 2206
ENCODING 8710
SWIDTH 720 0
DWIDTH 14 0
BBX 14 14 0 0
BITMAP
0780
0780
0780
0CC0
0CC0
1CE0
1860
1860
3030
3030
7038
6018
7FF8
FFFC
ENDCHAR
STARTCHAR 220F
ENCODING 8719
SWIDTH 822 0
DWIDTH 16 0
BBX 14 16 1 -2
BITMAP
FFFC
FFFC
3030
3030
3030
3030
3030
3030
3030
3030
3030
3030
3030
3030
3030
3030
ENDCHAR
STARTCHAR 2211
ENCODING 8721
SWIDTH 720 0
DWIDTH 14 0
BBX 11 16 2 -2
BITMAP
FFE0
FFE0
6000
3000
1800
0C00
0600
0300
0700
0E00
1C00
3800
7000
E000
FFE0
FFE0
ENDCHAR
STARTCHAR 2212
ENCODING 8722
SWIDTH 822 0
DWIDTH 16 0
BBX 11 2 2 5
BITMAP
FFE0
FFE0
ENDCHAR
STARTCHAR 2215
ENCODING 8725
SWIDTH 360 0
DWIDTH 7 0
BBX 9 14 -1 0
BITMAP
0180
0100
0300
0200
0600
0400
0C00
1800
1000
3000
2000
6000
4000
C000
ENDCHAR
STARTCHAR 2219
ENCODING 8729
SWIDTH 360 0
DWIDTH 7 0
BBX 2 3 2 5
BITMAP
C0
C0
C0
ENDCHAR
STARTCHAR 221A
ENCODING 8730
SWIDTH 822 0
DWIDTH 16 0
BBX 15 18 1 -1
BITMAP
0002
0004
0004
0008
0008
0018
0010
F010
3820
1820
1840
0C40
0C80
0680
0680
0700
0300
0200
ENDCHAR
STARTCHAR 221E
ENCODING 8734
SWIDTH 977 0
DWIDTH 19 0
BBX 15 9 2 2
BITMAP
3C38
7EFC
E3CE
C186
C106
C306
E78E
7EFC
3C78
ENDCHAR
STARTCHAR 222B
ENCODING 8747
SWIDTH 617 0
DWIDTH 12 0
BBX 10 19 1 -4
BITMAP
03C0
07C0
0E00
0C00
0C00
0C00
0C00
0C00
0C00
0C00
0C00
0C00
0C00
0C00
0C00
0C00
1C00
F800
F000
ENDCHAR
STARTCHAR 2248
ENCODING 8776
SWIDTH 822 0
DWIDTH 16 0
BBX 11 9 2 1
BITMAP
3860
7CE0
E7C0
C3C0
0000
3860
7CE0
E7C0
C3C0
ENDCHAR
STARTCHAR 2260
ENCODING 8800
SWIDTH 822 0
DWIDTH 16 0
BBX 11 11 2 1
BITMAP
0100
0200
0200
FFE0
0400
0400
0400
FFE0
0800
0800
1000
ENDCHAR
STARTCHAR 2264
ENCODING 8804
SWIDTH 822 0
DWIDTH 16 0
BBX 11 13 2 0
BITMAP
0060
01E0
0F80
3E00
F800
F800
3E00
0F80
01E0
0060
0000
FFE0
FFE0
ENDCHAR
STARTCHAR 2265
ENCODING 8805
SWIDTH 822 0
DWIDTH 16 0
BBX 11 13 2 0
BITMAP
C000
F000
3E00
0F80
03E0
03E0
0F80
3E00
F000
C000
0000
FFE0
FFE0
ENDCHAR
STARTCHAR 25A1
ENCODING 9633
SWIDTH 565 0
DWIDTH 11 0
BBX 9 9 1 0
BITMAP
FF80
8080
8080
8080
8080
8080
8080
8080
FF80
ENDCHAR
STARTCHAR 25AA
ENCODING 9642
SWIDTH 360 0
DWIDTH 7 0
BBX 4 4 1 4
BITMAP
F0
F0
F0
F0
ENDCHAR
STARTCHAR 25AB
ENCODING 9643
SWIDTH 360 0
DWIDTH 7 0
BBX 4 4 1 4
BITMAP
F0
90
90
F0
ENDCHAR
STARTCHAR 25CA
ENCODING 9674
SWIDTH 822 0
DWIDTH 16 0
BBX 13 13 1 -1
BITMAP
0200
0700
0D80
18C0
3060
6030
C018
6030
3060
18C0
0D80
0700
0200
ENDCHAR
STARTCHAR 25CF
ENCODING 9679
SWIDTH 565 0
DWIDTH 11 0
BBX 8 8 1 1
BITMAP
3C
7E
FF
FF
FF
FF
7E
3C
ENDCHAR
STARTCHAR 25E6
ENCODING 9702
SWIDTH 360 0
DWIDTH 7 0
BBX 5 5 1 4
BITMAP
70
88
88
88
70
ENDCHAR
STARTCHAR F001
ENCODING 61441
SWIDTH 617 0
DWIDTH 12 0
BBX 9 15 1 0
BITMAP
3C00
7D80
6180
6000
FF80
FF80
6180
6180
6180
6180
6180
6180
6180
6180
6180
ENDCHAR
STARTCHAR F002
ENCODING 61442
SWIDTH 617 0
DWIDTH 12 0
BBX 9 15 1 0
BITMAP
1F80
3F80
6180
6180
FD80
FD80
6180
6180
6180
6180
6180
6180
6180
6180
6180
ENDCHAR
STARTCHAR F004
ENCODING 61444
SWIDTH 205 0
DWIDTH 4 0
BBX 4 5 1 -4
BITMAP
70
60
60
C0
C0
ENDCHAR
STARTCHAR F005
ENCODING 61445
SWIDTH 617 0
DWIDTH 12 0
BBX 5 4 3 -4
BITMAP
18
18
18
F0
ENDCHAR
STARTCHAR F006
ENCODING 61446
SWIDTH 514 0
DWIDTH 10 0
BBX 4 9 3 5
BITMAP
30
F0
30
30
30
30
30
30
30
ENDCHAR
STARTCHAR F007
ENCODING 61447
SWIDTH 514 0
DWIDTH 10 0
BBX 7 9 2 5
BITMAP
F8
8C
0C
0C
1C
18
30
C0
FE
ENDCHAR
STARTCHAR F008
ENCODING 61448
SWIDTH 514 0
DWIDTH 10 0
BBX 6 9 2 5
BITMAP
F8
8C
0C
0C
70
0C
0C
8C
F8
ENDCHAR
STARTCHAR F009
ENCODING 61449
SWIDTH 514 0
DWIDTH 10 0
BBX 8 9 2 5
BITMAP
0C
1C
3C
6C
4C
8C
FF
0C
0C
ENDCHAR
STARTCHAR F00A
ENCODING 61450
SWIDTH 514 0
DWIDTH 10 0
BBX 6 9 2 5
BITMAP
FC
C0
C0
F8
0C
0C
0C
9C
F8
ENDCHAR
STARTCHAR F00B
ENCODING 61451
SWIDTH 514 0
DWIDTH 10 0
BBX 6 9 2 5
BITMAP
FC
0C
18
18
30
30
60
60
E0
ENDCHAR
STARTCHAR F00C
ENCODING 61452
SWIDTH 514 0
DWIDTH 10 0
BBX 7 9 2 5
BITMAP
7C
C6
C6
64
7C
C6
C6
C6
7C
ENDCHAR
STARTCHAR F00D
ENCODING 61453
SWIDTH 0 0
DWIDTH 0 0
BBX 1 1 0 0
BITMAP
00
ENDCHAR
STARTCHAR FB01
ENCODING 64257
SWIDTH 617 0
DWIDTH 12 0
BBX 9 15 1 0
BITMAP
3C00
7D80
6180
6000
FF80
FF80
6180
6180
6180
6180
6180
6180
6180
6180
6180
ENDCHAR
STARTCHAR FB02
ENCODING 64258
SWIDTH 617 0
DWIDTH 12 0
BBX 9 15 1 0
BITMAP
1F80
3F80
6180
6180
FD80
FD80
6180
6180
6180
6180
6180
6180
6180
6180
6180
ENDCHAR
ENDFONT
